<svg xmlns="http://www.w3.org/2000/svg" viewBox="0 0 576.7 435.26"><defs><style>.cls-1,.cls-13{fill:#41ead4;}.cls-11,.cls-2,.cls-5{fill:#fff;}.cls-2{opacity:0.7;}.cls-10,.cls-12,.cls-3,.cls-9{fill:none;}.cls-10,.cls-11,.cls-12,.cls-13,.cls-3,.cls-4,.cls-5,.cls-8,.cls-9{stroke:#263238;}.cls-3,.cls-4,.cls-5{stroke-linecap:round;}.cls-10,.cls-11,.cls-12,.cls-13,.cls-3,.cls-4,.cls-5,.cls-7,.cls-8,.cls-9{stroke-linejoin:round;}.cls-10,.cls-11,.cls-13,.cls-3,.cls-4,.cls-5,.cls-8,.cls-9{stroke-width:1.2px;}.cls-4,.cls-6,.cls-7{fill:#263238;}.cls-7{stroke:#fff;stroke-width:0.83px;}.cls-8{fill:#d1d1d1;}.cls-10{stroke-dasharray:2.38 2.38;}.cls-12{stroke-width:0.6px;}</style></defs><g id="Background_Simple" data-name="Background Simple"><path class="cls-1" d="M617.81,346.69s27.37-140.34-47.19-220c-65.82-70.29-170-97.63-255-39.5-30.27,20.71-52.3,60.91-87.66,73.34-39.64,13.93-90.61,18.91-127.42,78.63S77,375.55,126,416.36s135,1,212.38-2S577.22,519.87,617.81,346.69Z" transform="translate(-63.06 -41.88)"/><path class="cls-2" d="M617.81,346.69s27.37-140.34-47.19-220c-65.82-70.29-170-97.63-255-39.5-30.27,20.71-52.3,60.91-87.66,73.34-39.64,13.93-90.61,18.91-127.42,78.63S77,375.55,126,416.36s135,1,212.38-2S577.22,519.87,617.81,346.69Z" transform="translate(-63.06 -41.88)"/></g><g id="Plants"><path class="cls-1" d="M165.38,95.51s0-8.53-11.94-20.47-19.62-18.77-19.62-18.77-6,19.62,5.11,31.56,26.45,23,26.45,23Z" transform="translate(-63.06 -41.88)"/><path class="cls-1" d="M148.05,148.79s0-8.53-12-20.48-19.62-18.76-19.62-18.76-6,19.62,5.12,31.56,26.45,23,26.45,23Z" transform="translate(-63.06 -41.88)"/><path class="cls-1" d="M164.63,110s.9-8.48,14-19.1,21.49-16.59,21.49-16.59S204,94.5,191.74,105.2,163,125.31,163,125.31Z" transform="translate(-63.06 -41.88)"/><path class="cls-1" d="M143.69,173s1.79-8.34,16-17.52,23.12-14.24,23.12-14.24,1.72,20.44-11.62,29.79-30.69,17-30.69,17Z" transform="translate(-63.06 -41.88)"/><path class="cls-1" d="M147.63,241.56s0-8.53,11.94-20.48,19.62-18.76,19.62-18.76,6,19.62-5.12,31.56-26.44,23-26.44,23Z" transform="translate(-63.06 -41.88)"/><path class="cls-1" d="M147.43,258.3s1.21-8.44-8.92-22S121.76,215,121.76,215s-8.7,18.58.58,32,22.9,26.56,22.9,26.56Z" transform="translate(-63.06 -41.88)"/><path class="cls-1" d="M135.65,307.92s0-8.53,11.94-20.47,19.62-18.77,19.62-18.77,6,19.62-5.11,31.57-26.45,23-26.45,23Z" transform="translate(-63.06 -41.88)"/><path class="cls-1" d="M143.63,352.92s-2.17-8.26,6.36-22.84S164.22,307,164.22,307s10.75,17.47,3,31.83-19.75,29-19.75,29Z" transform="translate(-63.06 -41.88)"/><path class="cls-3" d="M166.46,93.32a242.41,242.41,0,0,1-3.27,26.49C158.47,144.2,146.67,159.94,142,182s8.83,50.42,5.2,78.71-14.65,44-11.5,62.92,19.67,70,19.67,70" transform="translate(-63.06 -41.88)"/><line class="cls-3" x1="101.45" y1="73.83" x2="114.32" y2="63.96"/><line class="cls-3" x1="102.05" y1="62.46" x2="96.66" y2="52.88"/><path class="cls-3" d="M142.66,181s10.78-8.08,21.85-16.16" transform="translate(-63.06 -41.88)"/><path class="cls-3" d="M148.05,164.14s-9-17.6-19.16-29.27" transform="translate(-63.06 -41.88)"/><path class="cls-3" d="M148.05,253.69a133.33,133.33,0,0,1,23-30.83" transform="translate(-63.06 -41.88)"/><path class="cls-3" d="M146,265.67s-5.38-12.87-11.67-22.15S127.1,233,127.1,233" transform="translate(-63.06 -41.88)"/><path class="cls-3" d="M135.65,323.6A143.34,143.34,0,0,1,145.36,304a124.8,124.8,0,0,1,12.57-16.46" transform="translate(-63.06 -41.88)"/><path class="cls-3" d="M147.51,367.77s-1.26-10.22,3.23-18.9,9.58-20.05,11.68-24.54" transform="translate(-63.06 -41.88)"/><path class="cls-1" d="M87.17,209.48s-.92-5.35,5.27-14.14,10.27-13.9,10.27-13.9,5.87,11.66.21,20.35A133.9,133.9,0,0,1,88.84,219.1Z" transform="translate(-63.06 -41.88)"/><path class="cls-1" d="M103.83,241s-.93-5.35,5.26-14.13S119.36,213,119.36,213s5.87,11.65.22,20.35a133.55,133.55,0,0,1-14.09,17.31Z" transform="translate(-63.06 -41.88)"/><path class="cls-1" d="M89.22,218.5s-1.49-5.22-10.88-10.45S63.06,200,63.06,200,62.83,213,71.7,218.41a133.33,133.33,0,0,0,20.2,9.49Z" transform="translate(-63.06 -41.88)"/><path class="cls-1" d="M109.18,255.69s-2-5-11.91-9.25-16-6.42-16-6.42,1.14,13,10.52,17.42a134.12,134.12,0,0,0,21.09,7.31Z" transform="translate(-63.06 -41.88)"/><path class="cls-1" d="M114.16,299.13s-.93-5.35-9.71-11.54S90.11,278,90.11,278s-1.62,12.95,6.63,19.24a133.8,133.8,0,0,0,19.09,11.57Z" transform="translate(-63.06 -41.88)"/><path class="cls-1" d="M116.1,309.61s-1.67-5.16,3.21-14.74,8.18-15.22,8.18-15.22,7.48,10.7,3.11,20.11a133,133,0,0,1-11.48,19.14Z" transform="translate(-63.06 -41.88)"/><path class="cls-1" d="M131.09,352.76s.62-5.39,9-12.08,13.77-10.44,13.77-10.44,2.35,12.84-5.53,19.59A134.13,134.13,0,0,1,130,362.47Z" transform="translate(-63.06 -41.88)"/><path class="cls-1" d="M128.88,339.45s-.93-5.35-9.72-11.54-14.34-9.64-14.34-9.64-1.61,13,6.64,19.24a134,134,0,0,0,19.08,11.57Z" transform="translate(-63.06 -41.88)"/><path class="cls-1" d="M128.76,368.53s.46-5.41-6.47-13.63S110.85,342,110.85,342s-4.84,12.12,1.55,20.29a133.15,133.15,0,0,0,15.53,16Z" transform="translate(-63.06 -41.88)"/><path class="cls-3" d="M86.26,208.22a156.73,156.73,0,0,0,4.92,16.26c5.61,14.78,14.72,23.37,20.07,36.67s-.06,32.57,5.29,49.92,14,26,14,38.21-4.74,46.05-4.74,46.05" transform="translate(-63.06 -41.88)"/><line class="cls-3" x1="26.85" y1="180.17" x2="17.7" y2="175.37"/><line class="cls-3" x1="25.24" y1="173.1" x2="27.57" y2="166.51"/><path class="cls-3" d="M110.7,260.59s-7.64-3.9-15.46-7.76" transform="translate(-63.06 -41.88)"/><path class="cls-3" d="M105.49,250.63s3.72-12,8.84-20.44" transform="translate(-63.06 -41.88)"/><path class="cls-3" d="M115.21,306.79A84.56,84.56,0,0,0,97.41,290" transform="translate(-63.06 -41.88)"/><path class="cls-3" d="M117.83,314.07a96.06,96.06,0,0,1,4.91-15.16c2.94-6.5,3.37-7.35,3.37-7.35" transform="translate(-63.06 -41.88)"/><path class="cls-3" d="M130.16,358.52s6.06-7.43,9.83-10.21a52.17,52.17,0,0,0,6.39-5.55" transform="translate(-63.06 -41.88)"/><path class="cls-3" d="M130.58,349.28A91.72,91.72,0,0,0,122.36,338a79.8,79.8,0,0,0-9.67-9" transform="translate(-63.06 -41.88)"/><path class="cls-3" d="M127.93,378.26s-.32-6.54-4.07-11.49-8.19-11.54-10-14.13" transform="translate(-63.06 -41.88)"/><path class="cls-4" d="M163.06,476.54H113.22a3.93,3.93,0,0,1-3.93-3.93L96.93,390.06h82.42L167,472.61A3.93,3.93,0,0,1,163.06,476.54Z" transform="translate(-63.06 -41.88)"/></g><g id="Graphics"><rect class="cls-3" x="429.03" y="79.59" width="16.81" height="16.81" transform="translate(2.84 293.21) rotate(-45)"/><rect class="cls-3" x="311.09" y="44.38" width="9.17" height="9.17" transform="translate(-5.22 195.68) rotate(-45)"/><rect class="cls-3" x="582.07" y="103.84" width="9.17" height="9.17" transform="translate(32.09 404.7) rotate(-45)"/><path class="cls-3" d="M245.31,122.82a4.81,4.81,0,1,0-4.8,4.8A4.8,4.8,0,0,0,245.31,122.82Z" transform="translate(-63.06 -41.88)"/><path class="cls-3" d="M618.75,383.38a4.81,4.81,0,1,0-4.81,4.8A4.8,4.8,0,0,0,618.75,383.38Z" transform="translate(-63.06 -41.88)"/><path class="cls-3" d="M502.27,140.83a4.8,4.8,0,1,0-4.8,4.8A4.8,4.8,0,0,0,502.27,140.83Z" transform="translate(-63.06 -41.88)"/><path class="cls-3" d="M126.44,176.85a4.81,4.81,0,1,0-4.81,4.8A4.81,4.81,0,0,0,126.44,176.85Z" transform="translate(-63.06 -41.88)"/></g><g id="Device"><path class="cls-5" d="M100.28,119.17H527.54a12.74,12.74,0,0,1,12.74,12.74V413a0,0,0,0,1,0,0H87.54a0,0,0,0,1,0,0V131.9a12.74,12.74,0,0,1,12.74-12.74Z"/><rect class="cls-4" x="159.38" y="398.89" width="311.15" height="15.33"/><rect class="cls-5" x="159.38" y="406.27" width="311.15" height="7.95"/><path class="cls-4" d="M114,465.18s5.11,6.25,20.44,11.36H621.59s11.36-2.84,16.47-10.79Z" transform="translate(-63.06 -41.88)"/><rect class="cls-5" x="49.89" y="412.12" width="526.21" height="11.94" rx="3.86"/><path class="cls-6" d="M380.85,169.93a4,4,0,1,0-4,4A4,4,0,0,0,380.85,169.93Z" transform="translate(-63.06 -41.88)"/><path class="cls-7" d="M154.87,243.74h0a1.13,1.13,0,0,1-1.13-1.13V209.68a1.14,1.14,0,0,1,1.13-1.14h0a1.14,1.14,0,0,1,1.14,1.14v32.93A1.13,1.13,0,0,1,154.87,243.74Z" transform="translate(-63.06 -41.88)"/><rect class="cls-8" x="105.91" y="142.13" width="416" height="235.09"/><rect class="cls-6" x="175.05" y="142.13" width="346.87" height="13.9"/><circle class="cls-9" cx="185.38" cy="238.34" r="9.94" transform="translate(-140.16 47.21) rotate(-22.5)"/><circle class="cls-9" cx="122.31" cy="225.01" r="9.94"/><circle class="cls-9" cx="185.38" cy="295.42" r="9.94" transform="translate(-162.01 51.55) rotate(-22.5)"/><circle class="cls-9" cx="122.31" cy="282.09" r="9.94"/><circle class="cls-9" cx="122.31" cy="310.64" r="9.94"/><circle class="cls-9" cx="185.38" cy="381.06" r="9.94" transform="translate(-283.52 461.12) rotate(-80.78)"/><rect class="cls-9" x="154.7" y="164.07" width="341.88" height="207.18"/><line class="cls-9" x1="155.25" y1="287.85" x2="497" y2="287.85"/><line class="cls-9" x1="352.33" y1="300.4" x2="468.95" y2="300.4"/><line class="cls-9" x1="352.33" y1="310.74" x2="468.95" y2="310.74"/><line class="cls-9" x1="352.33" y1="321.07" x2="468.95" y2="321.07"/><line class="cls-9" x1="352.33" y1="331.4" x2="468.95" y2="331.4"/><line class="cls-9" x1="352.33" y1="341.74" x2="468.95" y2="341.74"/><line class="cls-9" x1="352.33" y1="352.07" x2="468.95" y2="352.07"/><line class="cls-9" x1="320.24" y1="169.2" x2="320.24" y2="170.4"/><line class="cls-10" x1="320.24" y1="172.78" x2="320.24" y2="280.88"/><line class="cls-9" x1="320.24" y1="282.06" x2="320.24" y2="283.27"/><path class="cls-11" d="M388.43,328.46a5.13,5.13,0,1,0-5.13,5.13A5.12,5.12,0,0,0,388.43,328.46Z" transform="translate(-63.06 -41.88)"/><line class="cls-12" x1="320.16" y1="283.27" x2="320.16" y2="290.14"/><line class="cls-12" x1="323.6" y1="286.7" x2="316.72" y2="286.7"/><path class="cls-9" d="M338.68,272.65H257.86a6.08,6.08,0,0,1-6.09-6.09h0a6.08,6.08,0,0,1,6.09-6.09h80.82a6.09,6.09,0,0,1,6.09,6.09h0A6.09,6.09,0,0,1,338.68,272.65Z" transform="translate(-63.06 -41.88)"/><rect class="cls-13" x="161.81" y="298.93" width="80.85" height="57.75"/><line class="cls-9" x1="161.81" y1="356.68" x2="242.67" y2="298.93"/><line class="cls-9" x1="161.81" y1="298.93" x2="242.67" y2="356.68"/><rect class="cls-13" x="254.08" y="298.93" width="80.85" height="57.75"/><line class="cls-9" x1="254.08" y1="356.68" x2="334.93" y2="298.93"/><line class="cls-9" x1="254.08" y1="298.93" x2="334.93" y2="356.68"/><line class="cls-9" x1="132.25" y1="253.55" x2="154.11" y2="253.55"/></g><g id="Character"><rect class="cls-13" x="327.89" y="171.12" width="148.17" height="105.84"/><line class="cls-9" x1="327.89" y1="276.96" x2="476.06" y2="171.12"/><line class="cls-9" x1="327.89" y1="171.12" x2="476.06" y2="276.96"/><path class="cls-5" d="M523.38,267.62a59.71,59.71,0,0,1,3.54,5.61,22.68,22.68,0,0,1,2,4.86s.63-.55,4-3.56,3.67-5.85,3.67-5.85L533.4,264S525.39,263.39,523.38,267.62Z" transform="translate(-63.06 -41.88)"/><path class="cls-5" d="M520.14,250s-1.09,3.16-2.08,3.29-3.92-1.24-3.6,1.22a6.58,6.58,0,0,0,2.28,4s-.68,8.11-.27,9.31,1,2.12,4,1.73l5.42-.71a17.57,17.57,0,0,0,2,.23c1.26.08,1.24.22,3.41-2.32s3.51-.35,2.95-4.54-1.15-6.87-3.48-9.32S520.14,250,520.14,250Z" transform="translate(-63.06 -41.88)"/><path class="cls-6" d="M519,255c-.27.92-.29,1.72,0,1.79s.66-.61.93-1.53.29-1.73,0-1.8S519.26,254.09,519,255Z" transform="translate(-63.06 -41.88)"/><path class="cls-5" d="M545.85,236.19l-17-12.85s-2.68-1.2-2.68-3.59a35.78,35.78,0,0,1,0-5.67c.29-2.39,0-3.59,1.19-3.59s1.49,2.69,1.49,2.69l.9-3s2.09-.59,2.39.9,2.69,2.39,2.09,4.48a22.8,22.8,0,0,1-2.69,5.08s15.84,6.87,18.82,7.77,8.47,3.43,7.87,6.42-3.54,11.94-3.54,11.94Z" transform="translate(-63.06 -41.88)"/><path class="cls-5" d="M529.73,276.83s-4.16,2.86-9,6.44c-6,4.44-6.1,14.74-6.53,15.78-.7,1.73,18.94,23.1,21.75,26.7s3.32,9.4,3.32,9.4l26.61-5.76s-13.32-46.5-14-49.91-1.82-7.85-1.82-7.85,1.84-10.51,4.22-19,3.35-13.92,3.17-15.3-7.53-2.17-10.57-2.23-2.76.36-2.76.36-6.61,15.35-7,16.1S529.73,276.83,529.73,276.83Z" transform="translate(-63.06 -41.88)"/><polygon class="cls-4" points="476.2 293.28 474.87 306.58 458.46 349.6 454.92 399.72 461.57 400.16 474.43 351.38 491.73 319.44 499.71 348.72 524.35 397.27 530.64 393.55 515.23 343.84 506.36 292.83 502.81 287.51 476.2 293.28"/><path class="cls-5" d="M534.64,268a49.72,49.72,0,0,1-3.19,4.16c-1.43,1.59-3.46,2.09-4,3.33a60.34,60.34,0,0,1-3.26,5.24s6.59-1.24,10-4,4.51-8.3,4.51-8.3S536.15,267.1,534.64,268Z" transform="translate(-63.06 -41.88)"/><path class="cls-5" d="M500.22,322.22s-26.05-8.24-28.57-9.43a8.45,8.45,0,0,0-7.27.08c-2.34,1-4.68.23-4.74,1.27s1.45,1.64,2.31,1.28a14,14,0,0,1,3.34-.42l-10,4.27s-.21,1.85,1.12,2,3.26,1.13,5.23,1,10.5-5.49,10.5-5.49a116.38,116.38,0,0,1,13.24,7.59c6.45,4.36,16.46,9.05,19.78,8.49s7.23-5.95,6.74-8.21C509.78,315.05,500.22,322.22,500.22,322.22Z" transform="translate(-63.06 -41.88)"/><path class="cls-5" d="M532.94,301.16s-7.77,10-12,15.26-8.48,14.44-12,14.2-7.87-7.28-7.65-9.18,5-6,7.8-13.4c2.06-5.49,5.68-14.8,7.4-19.2.63-1.61.76-2.85,2.13-3.89l2.11-1.68" transform="translate(-63.06 -41.88)"/><path class="cls-5" d="M501.29,321.44c.12-1.08,1.77-2.92,3.67-5.67.73,1.29,2.32,4.47,4.45,6a30.48,30.48,0,0,0,6.29,3.1c-3.34,4.09-4.83,5.88-6.76,5.75C505.41,330.39,501.07,323.34,501.29,321.44Z" transform="translate(-63.06 -41.88)"/><path class="cls-5" d="M541.91,240.6c1.23-2.85,2.21-5.14,2.21-5.14s-.29-.43,2.76-.36,11.52,1,11.7,2.35a13.3,13.3,0,0,1-1.87,7.84C554.35,243.36,547.11,240,541.91,240.6Z" transform="translate(-63.06 -41.88)"/><path class="cls-3" d="M527.26,308.89a38.9,38.9,0,0,1,11-5.31" transform="translate(-63.06 -41.88)"/><path class="cls-4" d="M526.08,257s-10.82-7.85-7.48-14.81,8.3-9.37,12.85-7.21,3.11,4.6,3.11,4.6,5-.15,6.75,3.63a6.36,6.36,0,0,1-.63,6.6,13.77,13.77,0,0,1,2.58,8.19c-.12,4.78-8.49,11.65-10.19,12.13s-3-2.11-3-2.11,2.43-4.34,1.35-4.95-3.78,1.76-3.78,1.76-1.35,1.18-1.74-1.78A21.62,21.62,0,0,1,526.08,257Z" transform="translate(-63.06 -41.88)"/><path class="cls-5" d="M518,441.59s-5,4.88-9.87,6.21a32.58,32.58,0,0,0-7.16,2.66l-1.11,1.93a1.08,1.08,0,0,0,.94,1.62h24.3a26.94,26.94,0,0,0,.44-5.76,18.18,18.18,0,0,0-.89-6.21Z" transform="translate(-63.06 -41.88)"/><path class="cls-5" d="M587.41,439.14l-.36,3.71s-1.53,3.83-3.84,5.37-5.11,1.54-5.11,3.07v2.82h9.47s2,.25,4.86-2.31,3.33-4.86,5.37-6.14,2.05-3.07,1-5.89-5.12-4.35-5.12-4.35Z" transform="translate(-63.06 -41.88)"/></g></svg>