<svg xmlns="http://www.w3.org/2000/svg" xmlns:xlink="http://www.w3.org/1999/xlink" viewBox="0 0 463.7 376.26"><defs><style>.cls-1{fill:none;}.cls-2{isolation:isolate;}.cls-3{clip-path:url(#clip-path);}.cls-4{fill:#f1f1f4;}.cls-5{fill:#e0f3ff;}.cls-6{fill:url(#Áåçûìÿííûé_ãðàäèåíò_29);}.cls-7{fill:url(#Áåçûìÿííûé_ãðàäèåíò_28);}.cls-8{fill:#e5e2ff;}.cls-9{fill:url(#Áåçûìÿííûé_ãðàäèåíò_28-2);}.cls-10,.cls-11,.cls-117,.cls-19,.cls-20,.cls-21,.cls-24,.cls-26,.cls-32,.cls-35,.cls-37,.cls-40,.cls-41,.cls-42,.cls-43,.cls-44,.cls-45,.cls-46,.cls-47,.cls-48,.cls-49,.cls-50,.cls-51,.cls-52,.cls-53,.cls-54,.cls-55,.cls-56,.cls-57,.cls-58,.cls-59,.cls-60,.cls-61,.cls-62,.cls-66,.cls-77,.cls-80,.cls-81,.cls-85,.cls-86,.cls-93,.cls-94,.cls-95,.cls-96,.cls-97,.cls-98{mix-blend-mode:multiply;}.cls-10,.cls-11{opacity:0.62;}.cls-10{fill:url(#Áåçûìÿííûé_ãðàäèåíò_27);}.cls-11{fill:url(#Áåçûìÿííûé_ãðàäèåíò_94);}.cls-12,.cls-15,.cls-16{mix-blend-mode:screen;}.cls-117,.cls-12,.cls-15,.cls-16,.cls-24,.cls-26,.cls-41,.cls-42,.cls-43,.cls-44,.cls-45,.cls-46,.cls-47,.cls-48,.cls-49,.cls-51,.cls-53,.cls-54,.cls-55,.cls-56,.cls-57,.cls-59,.cls-60,.cls-61,.cls-62,.cls-81{opacity:0.5;}.cls-12{fill:url(#Áåçûìÿííûé_ãðàäèåíò_95);}.cls-13{fill:#fff;}.cls-14{fill:url(#Áåçûìÿííûé_ãðàäèåíò_74);}.cls-15{fill:url(#Áåçûìÿííûé_ãðàäèåíò_83);}.cls-16{fill:url(#Áåçûìÿííûé_ãðàäèåíò_83-2);}.cls-17{fill:url(#Áåçûìÿííûé_ãðàäèåíò_26);}.cls-18{fill:url(#Áåçûìÿííûé_ãðàäèåíò_26-2);}.cls-19,.cls-20,.cls-21,.cls-50{opacity:0.76;}.cls-19{fill:url(#Áåçûìÿííûé_ãðàäèåíò_70);}.cls-20{fill:url(#Áåçûìÿííûé_ãðàäèåíò_70-2);}.cls-21{fill:url(#Áåçûìÿííûé_ãðàäèåíò_70-3);}.cls-22{fill:#fe9083;}.cls-23{fill:url(#Áåçûìÿííûé_ãðàäèåíò_354);}.cls-24{fill:url(#Áåçûìÿííûé_ãðàäèåíò_70-4);}.cls-25{fill:url(#Áåçûìÿííûé_ãðàäèåíò_26-3);}.cls-26{fill:url(#Áåçûìÿííûé_ãðàäèåíò_70-5);}.cls-27{fill:url(#Áåçûìÿííûé_ãðàäèåíò_178);}.cls-28{fill:url(#Áåçûìÿííûé_ãðàäèåíò_55);}.cls-29{fill:#cb4d7a;}.cls-30{fill:#ee8183;}.cls-31{fill:url(#Áåçûìÿííûé_ãðàäèåíò_71);}.cls-32,.cls-37,.cls-66,.cls-77,.cls-80,.cls-91,.cls-93{opacity:0.6;}.cls-32{fill:url(#Áåçûìÿííûé_ãðàäèåíò_48);}.cls-33{fill:url(#Áåçûìÿííûé_ãðàäèåíò_71-2);}.cls-34{fill:#e28183;}.cls-35,.cls-40{opacity:0.91;}.cls-35{fill:url(#Áåçûìÿííûé_ãðàäèåíò_73);}.cls-36{fill:url(#Áåçûìÿííûé_ãðàäèåíò_71-3);}.cls-37{fill:url(#Áåçûìÿííûé_ãðàäèåíò_48-2);}.cls-38{fill:url(#Áåçûìÿííûé_ãðàäèåíò_64);}.cls-39{fill:url(#Áåçûìÿííûé_ãðàäèåíò_64-2);}.cls-40{fill:url(#Áåçûìÿííûé_ãðàäèåíò_73-2);}.cls-41{fill:url(#Áåçûìÿííûé_ãðàäèåíò_70-6);}.cls-42{fill:url(#Áåçûìÿííûé_ãðàäèåíò_70-7);}.cls-43{fill:url(#Áåçûìÿííûé_ãðàäèåíò_4);}.cls-44{fill:url(#Áåçûìÿííûé_ãðàäèåíò_4-2);}.cls-45{fill:url(#Áåçûìÿííûé_ãðàäèåíò_4-3);}.cls-46{fill:url(#Áåçûìÿííûé_ãðàäèåíò_4-4);}.cls-47{fill:url(#Áåçûìÿííûé_ãðàäèåíò_4-5);}.cls-48{fill:url(#Áåçûìÿííûé_ãðàäèåíò_4-6);}.cls-49{fill:url(#Áåçûìÿííûé_ãðàäèåíò_4-7);}.cls-50{fill:url(#Áåçûìÿííûé_ãðàäèåíò_70-8);}.cls-51{fill:url(#Áåçûìÿííûé_ãðàäèåíò_70-9);}.cls-52,.cls-58,.cls-94,.cls-95,.cls-96,.cls-97{opacity:0.3;}.cls-52{fill:url(#Áåçûìÿííûé_ãðàäèåíò_70-10);}.cls-53{fill:url(#Áåçûìÿííûé_ãðàäèåíò_4-8);}.cls-54{fill:url(#Áåçûìÿííûé_ãðàäèåíò_70-11);}.cls-55{fill:url(#Áåçûìÿííûé_ãðàäèåíò_4-9);}.cls-56{fill:url(#Áåçûìÿííûé_ãðàäèåíò_4-10);}.cls-57{fill:url(#Áåçûìÿííûé_ãðàäèåíò_70-12);}.cls-58{fill:url(#Áåçûìÿííûé_ãðàäèåíò_70-13);}.cls-59{fill:url(#Áåçûìÿííûé_ãðàäèåíò_70-14);}.cls-60{fill:url(#Áåçûìÿííûé_ãðàäèåíò_70-15);}.cls-61{fill:url(#Áåçûìÿííûé_ãðàäèåíò_70-16);}.cls-62{fill:#7a4ac0;}.cls-63{fill:url(#Áåçûìÿííûé_ãðàäèåíò_71-4);}.cls-64{fill:url(#Áåçûìÿííûé_ãðàäèåíò_71-5);}.cls-65{fill:url(#Áåçûìÿííûé_ãðàäèåíò_387);}.cls-66{fill:url(#Áåçûìÿííûé_ãðàäèåíò_48-3);}.cls-67{fill:#38368e;}.cls-68{fill:url(#Áåçûìÿííûé_ãðàäèåíò_59);}.cls-69{fill:url(#Áåçûìÿííûé_ãðàäèåíò_184);}.cls-70{fill:#ffebed;}.cls-71{fill:#7f9ec9;}.cls-72{fill:#131163;}.cls-73{fill:#c6659c;}.cls-74{fill:#cb5f7d;}.cls-75{fill:#9f4a8b;}.cls-76{fill:#ffbcaf;}.cls-77{fill:url(#Áåçûìÿííûé_ãðàäèåíò_48-4);}.cls-78{fill:url(#Áåçûìÿííûé_ãðàäèåíò_292);}.cls-79{fill:#d2726c;}.cls-80{fill:url(#Áåçûìÿííûé_ãðàäèåíò_35);}.cls-81{fill:url(#Áåçûìÿííûé_ãðàäèåíò_397);}.cls-82{fill:url(#Áåçûìÿííûé_ãðàäèåíò_141);}.cls-83{fill:url(#Áåçûìÿííûé_ãðàäèåíò_141-2);}.cls-84{fill:url(#Áåçûìÿííûé_ãðàäèåíò_141-3);}.cls-85,.cls-86{opacity:0.8;}.cls-85{fill:url(#Áåçûìÿííûé_ãðàäèåíò_285);}.cls-86{fill:url(#Áåçûìÿííûé_ãðàäèåíò_285-2);}.cls-87{fill:#34c7ff;}.cls-88{fill:url(#Áåçûìÿííûé_ãðàäèåíò_141-4);}.cls-89{fill:url(#Áåçûìÿííûé_ãðàäèåíò_141-5);}.cls-90{fill:url(#Áåçûìÿííûé_ãðàäèåíò_141-6);}.cls-91{fill:#36d1f7;}.cls-92{fill:#744ca2;}.cls-93{fill:url(#Áåçûìÿííûé_ãðàäèåíò_89);}.cls-94{fill:url(#Áåçûìÿííûé_ãðàäèåíò_85);}.cls-95{fill:url(#Áåçûìÿííûé_ãðàäèåíò_85-2);}.cls-96{fill:url(#Áåçûìÿííûé_ãðàäèåíò_85-3);}.cls-97{fill:url(#Áåçûìÿííûé_ãðàäèåíò_85-4);}.cls-98{fill:#d1d4fb;}.cls-118,.cls-99{mix-blend-mode:soft-light;}.cls-100{fill:#e0ffff;}.cls-101{fill:url(#Áåçûìÿííûé_ãðàäèåíò_65);}.cls-102{fill:url(#Áåçûìÿííûé_ãðàäèåíò_14);}.cls-103{opacity:0.81;fill:url(#Áåçûìÿííûé_ãðàäèåíò_115);}.cls-104{fill:#473da2;}.cls-105{fill:url(#Áåçûìÿííûé_ãðàäèåíò_302);}.cls-106{fill:url(#Áåçûìÿííûé_ãðàäèåíò_302-2);}.cls-107{fill:url(#Áåçûìÿííûé_ãðàäèåíò_322);}.cls-108{fill:url(#Áåçûìÿííûé_ãðàäèåíò_322-2);}.cls-109{fill:url(#Áåçûìÿííûé_ãðàäèåíò_25);}.cls-110{fill:url(#Áåçûìÿííûé_ãðàäèåíò_25-2);}.cls-111,.cls-113{opacity:0.73;}.cls-111{fill:url(#Áåçûìÿííûé_ãðàäèåíò_97);}.cls-112{fill:#953da2;}.cls-113{fill:url(#Áåçûìÿííûé_ãðàäèåíò_97-2);}.cls-114,.cls-115,.cls-116,.cls-117,.cls-118,.cls-122,.cls-123,.cls-124,.cls-125{fill-rule:evenodd;}.cls-114{fill:url(#Áåçûìÿííûé_ãðàäèåíò_206);}.cls-115{fill:url(#Áåçûìÿííûé_ãðàäèåíò_206-2);}.cls-116{fill:url(#Áåçûìÿííûé_ãðàäèåíò_107);}.cls-117{fill:#601734;}.cls-118{fill:#b3d9ff;}.cls-119{fill:#ff1d9c;}.cls-120{fill:#6877ff;}.cls-121{fill:#4f31e0;}.cls-122{fill:url(#Áåçûìÿííûé_ãðàäèåíò_107-2);}.cls-123{fill:url(#Áåçûìÿííûé_ãðàäèåíò_206-3);}.cls-124{fill:url(#Áåçûìÿííûé_ãðàäèåíò_107-3);}.cls-125{fill:url(#Áåçûìÿííûé_ãðàäèåíò_206-4);}</style><clipPath id="clip-path" transform="translate(-9.04 -10.78)"><rect class="cls-1" x="-56.26" y="-26.19" width="600" height="400"/></clipPath><linearGradient id="Áåçûìÿííûé_ãðàäèåíò_29" x1="83.58" y1="249.02" x2="83.58" y2="177.83" gradientTransform="matrix(0.91, -0.42, 0.42, 0.91, -69.26, 27.47)" gradientUnits="userSpaceOnUse"><stop offset="0" stop-color="#dbccff"/><stop offset="1" stop-color="#d1bbff"/></linearGradient><linearGradient id="Áåçûìÿííûé_ãðàäèåíò_28" x1="83.57" y1="251.79" x2="83.57" y2="180.6" gradientTransform="matrix(0.91, -0.42, 0.42, 0.91, -69.26, 27.47)" gradientUnits="userSpaceOnUse"><stop offset="0" stop-color="#b5a6e7"/><stop offset="1" stop-color="#7760bf"/></linearGradient><linearGradient id="Áåçûìÿííûé_ãðàäèåíò_28-2" x1="83.57" y1="234.09" x2="83.57" y2="204.09" xlink:href="#Áåçûìÿííûé_ãðàäèåíò_28"/><linearGradient id="Áåçûìÿííûé_ãðàäèåíò_27" x1="79.32" y1="204.69" x2="87.83" y2="204.69" gradientTransform="matrix(0.91, -0.42, 0.42, 0.91, -69.26, 27.47)" gradientUnits="userSpaceOnUse"><stop offset="0" stop-color="#8b8be0"/><stop offset="1" stop-color="#a177b7"/></linearGradient><linearGradient id="Áåçûìÿííûé_ãðàäèåíò_94" x1="83.57" y1="206.66" x2="83.57" y2="201.51" gradientTransform="matrix(0.91, -0.42, 0.42, 0.91, -69.26, 27.47)" gradientUnits="userSpaceOnUse"><stop offset="0" stop-color="#fff"/><stop offset="1" stop-color="#a177b7"/></linearGradient><linearGradient id="Áåçûìÿííûé_ãðàäèåíò_95" x1="88.08" y1="237.16" x2="88.08" y2="204.08" gradientTransform="matrix(0.91, -0.42, 0.42, 0.91, -69.26, 27.47)" gradientUnits="userSpaceOnUse"><stop offset="0"/><stop offset="1" stop-color="#fff"/></linearGradient><linearGradient id="Áåçûìÿííûé_ãðàäèåíò_74" x1="224.04" y1="373.81" x2="224.04" y2="284.6" gradientUnits="userSpaceOnUse"><stop offset="0" stop-color="#6456c0"/><stop offset="1" stop-color="#5f2c95"/></linearGradient><radialGradient id="Áåçûìÿííûé_ãðàäèåíò_83" cx="176.24" cy="342.46" r="27.03" gradientTransform="matrix(0, 0.66, -1.71, 0, 767.4, 224.85)" gradientUnits="userSpaceOnUse"><stop offset="0" stop-color="#4b474b"/><stop offset="1"/></radialGradient><radialGradient id="Áåçûìÿííûé_ãðàäèåíò_83-2" cx="295.07" cy="326.62" r="27.03" gradientTransform="matrix(0.66, 0, 0, 1.71, 68.12, -218.36)" xlink:href="#Áåçûìÿííûé_ãðàäèåíò_83"/><linearGradient id="Áåçûìÿííûé_ãðàäèåíò_26" x1="195.17" y1="342.5" x2="218.57" y2="342.5" gradientUnits="userSpaceOnUse"><stop offset="0" stop-color="#9e8cef"/><stop offset="1" stop-color="#caafee"/></linearGradient><linearGradient id="Áåçûìÿííûé_ãðàäèåíò_26-2" x1="285.27" y1="342.5" x2="308.67" y2="342.5" gradientTransform="matrix(-1, 0, 0, 1, 535.11, 0)" xlink:href="#Áåçûìÿííûé_ãðàäèåíò_26"/><linearGradient id="Áåçûìÿííûé_ãðàäèåíò_70" x1="220.9" y1="373.81" x2="220.9" y2="284.6" gradientUnits="userSpaceOnUse"><stop offset="0" stop-color="#ccf"/><stop offset="1" stop-color="#755cbb"/></linearGradient><linearGradient id="Áåçûìÿííûé_ãðàäèåíò_70-2" x1="222.25" y1="318.43" x2="222.25" y2="294.1" xlink:href="#Áåçûìÿííûé_ãðàäèåíò_70"/><linearGradient id="Áåçûìÿííûé_ãðàäèåíò_70-3" x1="194.07" y1="309.48" x2="194.07" y2="285.65" xlink:href="#Áåçûìÿííûé_ãðàäèåíò_70"/><linearGradient id="Áåçûìÿííûé_ãðàäèåíò_354" x1="227.28" y1="150.26" x2="227.28" y2="114.65" gradientUnits="userSpaceOnUse"><stop offset="0" stop-color="#d5cdf8"/><stop offset="1" stop-color="#f3edfb"/></linearGradient><linearGradient id="Áåçûìÿííûé_ãðàäèåíò_70-4" x1="208.95" y1="132.42" x2="245.61" y2="132.42" xlink:href="#Áåçûìÿííûé_ãðàäèåíò_70"/><linearGradient id="Áåçûìÿííûé_ãðàäèåíò_26-3" x1="216.8" y1="292.54" x2="216.8" y2="113.1" xlink:href="#Áåçûìÿííûé_ãðàäèåíò_26"/><linearGradient id="Áåçûìÿííûé_ãðàäèåíò_70-5" x1="142.33" y1="180.73" x2="186.03" y2="180.73" xlink:href="#Áåçûìÿííûé_ãðàäèåíò_70"/><linearGradient id="Áåçûìÿííûé_ãðàäèåíò_178" x1="140.98" y1="230.98" x2="140.98" y2="147.07" gradientUnits="userSpaceOnUse"><stop offset="0" stop-color="#9e8cef"/><stop offset="1" stop-color="#dac7f3"/></linearGradient><linearGradient id="Áåçûìÿííûé_ãðàäèåíò_55" x1="285.27" y1="206.8" x2="341.58" y2="206.8" gradientUnits="userSpaceOnUse"><stop offset="0" stop-color="#a999f1"/><stop offset="1" stop-color="#dac7f3"/></linearGradient><linearGradient id="Áåçûìÿííûé_ãðàäèåíò_71" x1="122.66" y1="135.63" x2="122.66" y2="113.51" gradientUnits="userSpaceOnUse"><stop offset="0.02" stop-color="#ffc2a9"/><stop offset="1" stop-color="#ff9595"/></linearGradient><linearGradient id="Áåçûìÿííûé_ãðàäèåíò_48" x1="136.6" y1="135.11" x2="136.6" y2="98.49" gradientUnits="userSpaceOnUse"><stop offset="0" stop-color="#ffeadb"/><stop offset="0.99" stop-color="#c27cb6"/></linearGradient><linearGradient id="Áåçûìÿííûé_ãðàäèåíò_71-2" x1="135.41" y1="160.02" x2="135.41" y2="103.56" xlink:href="#Áåçûìÿííûé_ãðàäèåíò_71"/><linearGradient id="Áåçûìÿííûé_ãðàäèåíò_73" x1="125.31" y1="151.21" x2="143.06" y2="151.21" gradientUnits="userSpaceOnUse"><stop offset="0.02" stop-color="#d1a1d6"/><stop offset="0.99" stop-color="#bd89c4"/></linearGradient><linearGradient id="Áåçûìÿííûé_ãðàäèåíò_71-3" x1="342.74" y1="194.41" x2="342.74" y2="118.91" xlink:href="#Áåçûìÿííûé_ãðàäèåíò_71"/><linearGradient id="Áåçûìÿííûé_ãðàäèåíò_48-2" x1="351.66" y1="170.22" x2="351.66" y2="132.71" xlink:href="#Áåçûìÿííûé_ãðàäèåíò_48"/><linearGradient id="Áåçûìÿííûé_ãðàäèåíò_64" x1="359.06" y1="157.28" x2="359.06" y2="140.46" gradientUnits="userSpaceOnUse"><stop offset="0" stop-color="#ffb0b0"/><stop offset="0.98" stop-color="#ffc2a9"/></linearGradient><linearGradient id="Áåçûìÿííûé_ãðàäèåíò_64-2" x1="368.81" y1="159.87" x2="368.81" y2="150.65" xlink:href="#Áåçûìÿííûé_ãðàäèåíò_64"/><linearGradient id="Áåçûìÿííûé_ãðàäèåíò_73-2" x1="329.37" y1="178.25" x2="346.52" y2="178.25" xlink:href="#Áåçûìÿííûé_ãðàäèåíò_73"/><linearGradient id="Áåçûìÿííûé_ãðàäèåíò_70-6" x1="305.5" y1="237.44" x2="305.5" y2="152.92" xlink:href="#Áåçûìÿííûé_ãðàäèåíò_70"/><linearGradient id="Áåçûìÿííûé_ãðàäèåíò_70-7" x1="119.43" y1="220.41" x2="260.78" y2="220.41" xlink:href="#Áåçûìÿííûé_ãðàäèåíò_70"/><linearGradient id="Áåçûìÿííûé_ãðàäèåíò_4" x1="244.05" y1="196.76" x2="271.06" y2="196.76" gradientUnits="userSpaceOnUse"><stop offset="0" stop-color="#ccedff"/><stop offset="1" stop-color="#755cbb"/></linearGradient><linearGradient id="Áåçûìÿííûé_ãðàäèåíò_4-2" x1="219.54" y1="244.17" x2="259.25" y2="244.17" xlink:href="#Áåçûìÿííûé_ãðàäèåíò_4"/><linearGradient id="Áåçûìÿííûé_ãðàäèåíò_4-3" x1="221.38" y1="262.13" x2="263.8" y2="262.13" xlink:href="#Áåçûìÿííûé_ãðàäèåíò_4"/><linearGradient id="Áåçûìÿííûé_ãðàäèåíò_4-4" x1="184.87" y1="217.67" x2="184.87" y2="170.06" xlink:href="#Áåçûìÿííûé_ãðàäèåíò_4"/><linearGradient id="Áåçûìÿííûé_ãðàäèåíò_4-5" x1="188.7" y1="221.68" x2="188.7" y2="185.59" xlink:href="#Áåçûìÿííûé_ãðàäèåíò_4"/><linearGradient id="Áåçûìÿííûé_ãðàäèåíò_4-6" x1="131.67" y1="175.54" x2="131.67" y2="148.27" xlink:href="#Áåçûìÿííûé_ãðàäèåíò_4"/><linearGradient id="Áåçûìÿííûé_ãðàäèåíò_4-7" x1="153.73" y1="151.53" x2="164.72" y2="151.53" xlink:href="#Áåçûìÿííûé_ãðàäèåíò_4"/><linearGradient id="Áåçûìÿííûé_ãðàäèåíò_70-8" x1="273.19" y1="217.67" x2="273.19" y2="167.13" xlink:href="#Áåçûìÿííûé_ãðàäèåíò_70"/><linearGradient id="Áåçûìÿííûé_ãðàäèåíò_70-9" x1="330.01" y1="206.8" x2="330.01" y2="180.39" xlink:href="#Áåçûìÿííûé_ãðàäèåíò_70"/><linearGradient id="Áåçûìÿííûé_ãðàäèåíò_70-10" x1="300.06" y1="205.62" x2="300.06" y2="185.43" xlink:href="#Áåçûìÿííûé_ãðàäèåíò_70"/><linearGradient id="Áåçûìÿííûé_ãðàäèåíò_4-8" x1="125.96" y1="177.28" x2="125.96" y2="169.78" xlink:href="#Áåçûìÿííûé_ãðàäèåíò_4"/><linearGradient id="Áåçûìÿííûé_ãðàäèåíò_70-11" x1="145.99" y1="200.14" x2="145.99" y2="159.16" xlink:href="#Áåçûìÿííûé_ãðàäèåíò_70"/><linearGradient id="Áåçûìÿííûé_ãðàäèåíò_4-9" x1="251.41" y1="171.3" x2="251.41" y2="140.46" xlink:href="#Áåçûìÿííûé_ãðàäèåíò_4"/><linearGradient id="Áåçûìÿííûé_ãðàäèåíò_4-10" x1="211.01" y1="167.13" x2="211.01" y2="124.57" xlink:href="#Áåçûìÿííûé_ãðàäèåíò_4"/><linearGradient id="Áåçûìÿííûé_ãðàäèåíò_70-12" x1="202.77" y1="133.89" x2="249.03" y2="133.89" xlink:href="#Áåçûìÿííûé_ãðàäèåíò_70"/><linearGradient id="Áåçûìÿííûé_ãðàäèåíò_70-13" x1="321.69" y1="203.79" x2="321.69" y2="177.02" xlink:href="#Áåçûìÿííûé_ãðàäèåíò_70"/><linearGradient id="Áåçûìÿííûé_ãðàäèåíò_70-14" x1="283.85" y1="233.99" x2="283.85" y2="152.92" xlink:href="#Áåçûìÿííûé_ãðàäèåíò_70"/><linearGradient id="Áåçûìÿííûé_ãðàäèåíò_70-15" x1="196.69" y1="272.07" x2="196.69" y2="248.83" xlink:href="#Áåçûìÿííûé_ãðàäèåíò_70"/><linearGradient id="Áåçûìÿííûé_ãðàäèåíò_70-16" x1="241.84" y1="265.69" x2="241.84" y2="254.4" xlink:href="#Áåçûìÿííûé_ãðàäèåíò_70"/><linearGradient id="Áåçûìÿííûé_ãðàäèåíò_71-4" x1="241.34" y1="120.63" x2="241.34" y2="43.42" xlink:href="#Áåçûìÿííûé_ãðàäèåíò_71"/><linearGradient id="Áåçûìÿííûé_ãðàäèåíò_71-5" x1="212.56" y1="89.47" x2="212.56" y2="66.71" xlink:href="#Áåçûìÿííûé_ãðàäèåíò_71"/><linearGradient id="Áåçûìÿííûé_ãðàäèåíò_387" x1="252.07" y1="98.08" x2="253.02" y2="93.11" gradientUnits="userSpaceOnUse"><stop offset="0" stop-color="#e1616a"/><stop offset="1" stop-color="#ff8883"/></linearGradient><linearGradient id="Áåçûìÿííûé_ãðàäèåíò_48-3" x1="243.45" y1="94.28" x2="243.45" y2="44.54" xlink:href="#Áåçûìÿííûé_ãðàäèåíò_48"/><linearGradient id="Áåçûìÿííûé_ãðàäèåíò_59" x1="241.03" y1="73.91" x2="241.03" y2="64.06" gradientUnits="userSpaceOnUse"><stop offset="0" stop-color="#cf6074"/><stop offset="1" stop-color="#f37270"/></linearGradient><linearGradient id="Áåçûìÿííûé_ãðàäèåíò_184" x1="260.68" y1="77.04" x2="260.68" y2="68.46" gradientUnits="userSpaceOnUse"><stop offset="0" stop-color="#cf6074"/><stop offset="1" stop-color="#ff817f"/></linearGradient><linearGradient id="Áåçûìÿííûé_ãðàäèåíò_48-4" x1="261.49" y1="82.02" x2="261.49" y2="62.73" xlink:href="#Áåçûìÿííûé_ãðàäèåíò_48"/><linearGradient id="Áåçûìÿííûé_ãðàäèåíò_292" x1="242.37" y1="121.6" x2="242.37" y2="27.96" gradientUnits="userSpaceOnUse"><stop offset="0" stop-color="#2e33a0"/><stop offset="1" stop-color="#0665a5"/></linearGradient><linearGradient id="Áåçûìÿííûé_ãðàäèåíò_35" x1="266.97" y1="62.63" x2="266.97" y2="41.03" gradientUnits="userSpaceOnUse"><stop offset="0" stop-color="#ffeadb"/><stop offset="0.99" stop-color="#8860c7"/></linearGradient><linearGradient id="Áåçûìÿííûé_ãðàäèåíò_397" x1="243.81" y1="121.58" x2="243.81" y2="117.55" gradientUnits="userSpaceOnUse"><stop offset="0" stop-color="#776d7e"/><stop offset="1" stop-color="#9d68c2"/></linearGradient><linearGradient id="Áåçûìÿííûé_ãðàäèåíò_141" x1="255.61" y1="34.68" x2="255.61" y2="31.7" gradientUnits="userSpaceOnUse"><stop offset="0" stop-color="#1f77d1"/><stop offset="1" stop-color="#0686c9"/></linearGradient><linearGradient id="Áåçûìÿííûé_ãðàäèåíò_141-2" x1="236.57" y1="44.52" x2="236.57" y2="35.69" xlink:href="#Áåçûìÿííûé_ãðàäèåíò_141"/><linearGradient id="Áåçûìÿííûé_ãðàäèåíò_141-3" x1="268.6" y1="49" x2="268.6" y2="41.03" xlink:href="#Áåçûìÿííûé_ãðàäèåíò_141"/><linearGradient id="Áåçûìÿííûé_ãðàäèåíò_285" x1="215.87" y1="84.08" x2="205.68" y2="71.59" gradientUnits="userSpaceOnUse"><stop offset="0" stop-color="#ffeadb"/><stop offset="0.99" stop-color="#b060f4"/></linearGradient><linearGradient id="Áåçûìÿííûé_ãðàäèåíò_285-2" x1="216.94" y1="82.47" x2="211.92" y2="76.32" xlink:href="#Áåçûìÿííûé_ãðàäèåíò_285"/><linearGradient id="Áåçûìÿííûé_ãðàäèåíò_141-4" x1="235.98" y1="45.32" x2="253.25" y2="45.32" xlink:href="#Áåçûìÿííûé_ãðàäèåíò_141"/><linearGradient id="Áåçûìÿííûé_ãðàäèåíò_141-5" x1="260.34" y1="96.95" x2="265.58" y2="96.95" xlink:href="#Áåçûìÿííûé_ãðàäèåíò_141"/><linearGradient id="Áåçûìÿííûé_ãðàäèåíò_141-6" x1="253.87" y1="93.06" x2="259.52" y2="93.06" xlink:href="#Áåçûìÿííûé_ãðàäèåíò_141"/><linearGradient id="Áåçûìÿííûé_ãðàäèåíò_89" x1="295.54" y1="106.76" x2="472.6" y2="106.76" gradientUnits="userSpaceOnUse"><stop offset="0" stop-color="#9d68c2"/><stop offset="1" stop-color="#aec2ff"/></linearGradient><linearGradient id="Áåçûìÿííûé_ãðàäèåíò_85" x1="322.52" y1="162.86" x2="322.52" y2="109.45" gradientUnits="userSpaceOnUse"><stop offset="0" stop-color="#ccedff"/><stop offset="1" stop-color="#9d68c2"/></linearGradient><linearGradient id="Áåçûìÿííûé_ãðàäèåíò_85-2" x1="413.58" y1="136.82" x2="413.58" y2="113.3" xlink:href="#Áåçûìÿííûé_ãðàäèåíò_85"/><linearGradient id="Áåçûìÿííûé_ãðàäèåíò_85-3" x1="441.33" y1="136.82" x2="441.33" y2="113.3" xlink:href="#Áåçûìÿííûé_ãðàäèåíò_85"/><linearGradient id="Áåçûìÿííûé_ãðàäèåíò_85-4" x1="385.36" y1="136.82" x2="385.36" y2="113.3" xlink:href="#Áåçûìÿííûé_ãðàäèåíò_85"/><linearGradient id="Áåçûìÿííûé_ãðàäèåíò_65" x1="132.37" y1="79.02" x2="132.37" y2="54.4" gradientUnits="userSpaceOnUse"><stop offset="0" stop-color="#d93de3"/><stop offset="1" stop-color="#ff6dba"/></linearGradient><linearGradient id="Áåçûìÿííûé_ãðàäèåíò_14" x1="147.42" y1="79.02" x2="147.42" y2="54.4" gradientUnits="userSpaceOnUse"><stop offset="0" stop-color="#a242ea"/><stop offset="1" stop-color="#fe117e"/></linearGradient><linearGradient id="Áåçûìÿííûé_ãðàäèåíò_115" x1="137.14" y1="349.18" x2="150.45" y2="243.17" gradientUnits="userSpaceOnUse"><stop offset="0" stop-color="#067eff"/><stop offset="1" stop-color="#3e37a0"/></linearGradient><linearGradient id="Áåçûìÿííûé_ãðàäèåíò_302" x1="447.99" y1="87.12" x2="447.99" y2="78.19" gradientUnits="userSpaceOnUse"><stop offset="0" stop-color="#459fff"/><stop offset="1" stop-color="#a96dff"/></linearGradient><linearGradient id="Áåçûìÿííûé_ãðàäèåíò_302-2" x1="28" y1="191.85" x2="28" y2="180.73" xlink:href="#Áåçûìÿííûé_ãðàäèåíò_302"/><linearGradient id="Áåçûìÿííûé_ãðàäèåíò_322" x1="452.08" y1="76.35" x2="452.08" y2="67.41" gradientUnits="userSpaceOnUse"><stop offset="0" stop-color="#b31a8f"/><stop offset="1" stop-color="#fe117e"/></linearGradient><linearGradient id="Áåçûìÿííûé_ãðàäèåíò_322-2" x1="163.91" y1="105.76" x2="163.91" y2="99.44" xlink:href="#Áåçûìÿííûé_ãðàäèåíò_322"/><linearGradient id="Áåçûìÿííûé_ãðàäèåíò_25" x1="375.56" y1="245.2" x2="375.56" y2="238.88" gradientUnits="userSpaceOnUse"><stop offset="0" stop-color="#8642a0"/><stop offset="1" stop-color="#6456c0"/></linearGradient><linearGradient id="Áåçûìÿííûé_ãðàäèåíò_25-2" x1="47.04" y1="276.37" x2="47.04" y2="270.72" xlink:href="#Áåçûìÿííûé_ãðàäèåíò_25"/><linearGradient id="Áåçûìÿííûé_ãðàäèåíò_97" x1="79.78" y1="256.59" x2="79.78" y2="209.92" gradientUnits="userSpaceOnUse"><stop offset="0" stop-color="#d906e3"/><stop offset="1" stop-color="#ff6df9"/></linearGradient><linearGradient id="Áåçûìÿííûé_ãðàäèåíò_97-2" x1="401.97" y1="322.64" x2="401.97" y2="264.26" xlink:href="#Áåçûìÿííûé_ãðàäèåíò_97"/><linearGradient id="Áåçûìÿííûé_ãðàäèåíò_206" x1="348.06" y1="249.02" x2="343.09" y2="206.33" gradientTransform="matrix(0.97, 0.26, -0.26, 0.97, 54.89, -40.95)" gradientUnits="userSpaceOnUse"><stop offset="0" stop-color="#1852a0"/><stop offset="1" stop-color="#067ed3"/></linearGradient><linearGradient id="Áåçûìÿííûé_ãðàäèåíò_206-2" x1="343.24" y1="249.18" x2="343.24" y2="205.44" xlink:href="#Áåçûìÿííûé_ãðàäèåíò_206"/><linearGradient id="Áåçûìÿííûé_ãðàäèåíò_107" x1="305.68" y1="263.09" x2="302.46" y2="235.47" gradientTransform="matrix(0.94, 0.33, -0.52, 1.49, 164.55, -204.61)" gradientUnits="userSpaceOnUse"><stop offset="0" stop-color="#188dc1"/><stop offset="1" stop-color="#06bfe7"/></linearGradient><linearGradient id="Áåçûìÿííûé_ãðàäèåíò_107-2" x1="347.05" y1="51.13" x2="358.39" y2="9.05" gradientTransform="matrix(1, 0, 0, 1, 0, 0)" xlink:href="#Áåçûìÿííûé_ãðàäèåíò_107"/><linearGradient id="Áåçûìÿííûé_ãðàäèåíò_206-3" x1="327.58" y1="46.28" x2="336.03" y2="14.9" gradientTransform="matrix(1, 0, 0, 1, 0, 0)" xlink:href="#Áåçûìÿííûé_ãðàäèåíò_206"/><linearGradient id="Áåçûìÿííûé_ãðàäèåíò_107-3" x1="65.67" y1="134.39" x2="73.39" y2="105.7" gradientTransform="matrix(-1, 0, 0, 1, 85.1, -10.78)" xlink:href="#Áåçûìÿííûé_ãðàäèåíò_107"/><linearGradient id="Áåçûìÿííûé_ãðàäèåíò_206-4" x1="52.39" y1="131.08" x2="58.15" y2="109.68" gradientTransform="matrix(-1, 0, 0, 1, 85.1, -10.78)" xlink:href="#Áåçûìÿííûé_ãðàäèåíò_206"/></defs><g class="cls-2"><g id="illustration"><g class="cls-3"><path class="cls-4" d="M92,169.91a.33.33,0,0,1,.36-.36l6.7.21a5.06,5.06,0,0,1,1.69.3,2.8,2.8,0,0,1,1.11.75,2.61,2.61,0,0,1,.59,1.13,5.34,5.34,0,0,1,.16,1.48l-.06,1.84a5.37,5.37,0,0,1-.24,1.46,2.67,2.67,0,0,1-1.81,1.78,5.18,5.18,0,0,1-1.71.2l-3.61-.11-.75-2.11h-.09l-.07,2.08-2.53-.07Zm2.34,6.33,4.29.13a1.35,1.35,0,0,0,1-.29A1.59,1.59,0,0,0,100,175l.05-1.5a1.56,1.56,0,0,0-.27-1.14,1.42,1.42,0,0,0-1-.33l-4.1-.13a.22.22,0,0,0-.14,0,.21.21,0,0,0,0,.13Z" transform="translate(-9.04 -10.78)"/><path class="cls-4" d="M106.19,173.75h-.09l-.08,2.68a.15.15,0,0,0,.17.17l7.54.23-.07,2.32-9.89-.3c-.24,0-.35-.13-.35-.38l.25-8.2c0-.25.13-.37.37-.36l9.61.29a.33.33,0,0,1,.35.38l-.07,2.32-2.37.8h-.1l0-1.19c0-.09,0-.14-.12-.14l-5.07-.15c-.07,0-.11,0-.13.05a.15.15,0,0,0,0,.11l0,1.12,4.17.13,0,1.82-3.5-.11Z" transform="translate(-9.04 -10.78)"/><path class="cls-4" d="M123,173.58h-.1l0-1c0-.1,0-.15-.14-.16L118,172.3a.5.5,0,0,0-.36.1.49.49,0,0,0-.11.32v.22a.45.45,0,0,0,.07.33.76.76,0,0,0,.33.12l5.53,1a3.65,3.65,0,0,1,.89.25,1.75,1.75,0,0,1,.59.42,1.44,1.44,0,0,1,.31.63,3.34,3.34,0,0,1,.08.88l0,.71a3.07,3.07,0,0,1-.16,1,1.62,1.62,0,0,1-.46.7,1.85,1.85,0,0,1-.83.41,4.53,4.53,0,0,1-1.24.12l-8-.25.07-2.32,7.13.22c.22,0,.36,0,.43-.11a.63.63,0,0,0,.12-.4v-.25a.5.5,0,0,0-.06-.33.53.53,0,0,0-.31-.12l-5.34-.84a4.48,4.48,0,0,1-.92-.25,1.77,1.77,0,0,1-.62-.41,1.5,1.5,0,0,1-.34-.62,2.76,2.76,0,0,1-.08-.85l0-.62a2,2,0,0,1,.56-1.49,2.3,2.3,0,0,1,1.73-.49l8,.25a.34.34,0,0,1,.37.4l-.06,1.84Z" transform="translate(-9.04 -10.78)"/><path class="cls-4" d="M126.31,179.54l.27-8.95,2.53.08-.27,8.94Z" transform="translate(-9.04 -10.78)"/><path class="cls-4" d="M138.23,176.06a2.8,2.8,0,0,0,0-.41c0-.14,0-.27,0-.38v-.11l2.5.08-.13,4.39c0,.22-.11.34-.32.33l-6.73-.2a5.15,5.15,0,0,1-1.69-.31,2.77,2.77,0,0,1-1.1-.74,2.84,2.84,0,0,1-.6-1.14,5.63,5.63,0,0,1-.15-1.47l.06-1.85a4.7,4.7,0,0,1,.24-1.46,2.73,2.73,0,0,1,.66-1.1,2.91,2.91,0,0,1,1.15-.68,5.12,5.12,0,0,1,1.7-.2l6.7.21c.24,0,.35.13.34.37l-.05,1.93-2.38.79h-.1l0-.86c0-.08,0-.12-.11-.13L134,173a2.77,2.77,0,0,0-.62,0,.94.94,0,0,0-.42.22,1.11,1.11,0,0,0-.25.44,2.55,2.55,0,0,0-.09.68l0,1.57a1.6,1.6,0,0,0,.27,1.14,1.37,1.37,0,0,0,1,.35l4.24.13a.13.13,0,0,0,.14-.14Z" transform="translate(-9.04 -10.78)"/><path class="cls-4" d="M146.06,171.18a.57.57,0,0,1,.6.38l3.2,6.53a.23.23,0,0,0,.22.15h.14c.13,0,.2-.06.2-.19l.21-6.74,2.29.07-.26,8.59c0,.24-.12.35-.35.35l-3.64-.11a.84.84,0,0,1-.38-.09.65.65,0,0,1-.24-.29l-3.31-6.52a.25.25,0,0,0-.23-.15h-.13a.18.18,0,0,0-.2.19l-.2,6.72-2.3-.07.26-8.57q0-.37.36-.36Z" transform="translate(-9.04 -10.78)"/><circle class="cls-5" cx="212.79" cy="169.34" r="155.02" transform="translate(-66.46 189.29) rotate(-45)"/><path class="cls-6" d="M98.84,159.42a23.77,23.77,0,0,0-10.56-9.26l-2.35,1.1,5.3,9.6A10.33,10.33,0,0,1,88,166.58h0a10.28,10.28,0,0,1-6.46-1.19l-4-10.22-2.35,1.1a23.72,23.72,0,0,0,.33,14s1,2.32,1.17,2.52c.94,1.09,3.36,2.34,8.06,2.05L101,205.77a8.48,8.48,0,1,0,8.76-4.09l-13.3-32.25c3.16-3.34,3.83-6,3.59-7.49C100,161.62,98.84,159.42,98.84,159.42Zm13.33,53.31-4.3,2L104,212l.41-4.72,4.29-2,3.89,2.72Z" transform="translate(-9.04 -10.78)"/><path class="cls-7" d="M100,161.94a23.77,23.77,0,0,0-10.55-9.26l-2.35,1.09,5.29,9.61a10.26,10.26,0,0,1-3.24,5.72v0a10.34,10.34,0,0,1-6.47-1.18l-4-10.23-2.35,1.1a23.85,23.85,0,0,0,.33,14s3.67,4.91,9.24,4.57l16.2,30.91a8.48,8.48,0,1,0,8.76-4.09L97.59,172C101.43,167.9,100,161.94,100,161.94Zm13.33,53.31-4.29,2-3.88-2.72.41-4.72,4.29-2,3.88,2.71Z" transform="translate(-9.04 -10.78)"/><rect class="cls-8" x="75.66" y="155.58" width="2.59" height="2.78" transform="translate(-68.24 36.55) rotate(-25.04)"/><rect class="cls-8" x="86.4" y="150.58" width="2.59" height="2.78" transform="translate(-65.12 40.63) rotate(-25.04)"/><rect class="cls-8" x="108.24" y="213.61" width="4.74" height="2.78" transform="translate(-89.64 56.25) rotate(-25.04)"/><path class="cls-9" d="M89.4,179.67l13.09,25.16a6.41,6.41,0,0,0,5.28-2.47L97.12,176.07A10.06,10.06,0,0,0,89.4,179.67Zm17.36,22.89a7.36,7.36,0,0,1-1.69,1.11,6.5,6.5,0,0,1-1.81.54l-13.1-24.63a13.43,13.43,0,0,1,3.15-2.07,11,11,0,0,1,3.24-1Z" transform="translate(-9.04 -10.78)"/><path class="cls-8" d="M106.76,202.56l1-.2a5.66,5.66,0,0,1-5.28,2.47l.77-.62A7.13,7.13,0,0,0,106.76,202.56Z" transform="translate(-9.04 -10.78)"/><path class="cls-10" d="M89.4,179.67l.76-.09a12.21,12.21,0,0,1,6.39-3l.57-.48a9.83,9.83,0,0,0-7.72,3.6Z" transform="translate(-9.04 -10.78)"/><path class="cls-11" d="M85.94,177.38A28.86,28.86,0,0,0,97.59,172l1.71,4.13s-1.93-1.91-6.17-.19c-4.95,2-4.68,6-4.68,6Z" transform="translate(-9.04 -10.78)"/><path class="cls-12" d="M99.3,176.08a5.11,5.11,0,0,0-2.59-.9l12.66,30.6,1.53-1.58Z" transform="translate(-9.04 -10.78)"/><path class="cls-13" d="M99.3,176.08s-1.33,4.08,2.48,6Z" transform="translate(-9.04 -10.78)"/><path class="cls-14" d="M290,373.81H243c-4.92-27.32-16.36-62.87-16.36-62.87-2.78-1.65-8.21.38-8.21.38l-17.18,62.49H158.28c-2.28-38.56,18.82-82.33,18.82-82.33h0a4.73,4.73,0,0,1-.56-2.39,5.68,5.68,0,0,1,1.6-1.86c1.16-1.06,2.54-2.12,2.54-2.12l80.11-.5s.81.41,1.84,1h0c1.75,1.06,4.12,2.7,4.12,3.9a5.47,5.47,0,0,1-.81,3l0,.05C283.08,325,290,373.81,290,373.81Z" transform="translate(-9.04 -10.78)"/><ellipse class="cls-15" cx="180.6" cy="341.73" rx="46.31" ry="17.92" transform="translate(-202.02 430.11) rotate(-77.01)"/><ellipse class="cls-16" cx="263.8" cy="341.28" rx="17.92" ry="46.31" transform="translate(-91.34 73.06) rotate(-15.65)"/><path class="cls-17" d="M195.66,373.86l-.49-.09c5.46-32.2,19.34-59.2,19.48-59.47l0-.07,3.54-3.09.33.37-3.5,3.06C214.44,315.79,201,342.33,195.66,373.86Z" transform="translate(-9.04 -10.78)"/><path class="cls-18" d="M249.35,373.86c-5.36-31.55-19.16-58.35-19.78-59.54l-3.13-2.81.34-.37,3.21,2.91c.15.27,14.39,27.52,19.85,59.72Z" transform="translate(-9.04 -10.78)"/><path class="cls-19" d="M266.75,289.53a5.47,5.47,0,0,1-.81,3l0,.05c-16.68,3.77-29.37,19.34-29.37,19.34,9.09,17.44,24.25,61.93,24.25,61.93H243c-4.92-27.32-16.36-62.87-16.36-62.87-2.78-1.65-8.21.38-8.21.38l-17.18,62.49H190.1c4-26.18,15.73-58.14,15.73-58.14-11.55-13.45-28.73-24.19-28.73-24.19h0l-2-1.28,1.48-1.11c7.43,7.13,31.39,16.44,32.13,16.73l-30.53-18.59c1.16-1.06,2.54-2.12,2.54-2.12l80.11-.5s.81.41,1.84,1l-21.88,12Z" transform="translate(-9.04 -10.78)"/><polygon class="cls-20" points="217.57 300.17 226.93 294.1 224.7 300.17 223.07 318.43 217.57 300.17"/><polygon class="cls-21" points="209.36 300.55 199.62 295.04 178.77 285.65 205.32 303.19 206.91 309.49 209.36 300.55"/><path class="cls-22" d="M245.2,123.46c.06.43.11.66.11.66a57.27,57.27,0,0,1-1.66,5.66,46,46,0,0,1-6.23,12.12,23.85,23.85,0,0,1-2.72,3.18c-14.59-4.58-21.78-18.85-24.54-26a.36.36,0,0,1,0-.11c-.53-1.34-.88-2.42-1.1-3.12h0c-.17-.56-.25-.87-.25-.87l.18-.37,0-.05c.24-.5.48-1,.7-1.5a71.16,71.16,0,0,0,4-11.17c.71-2.62,1.09-4.64,1.27-5.71.09-.55.13-.85.13-.85l6.8,3.59,23.43,12.4a38.55,38.55,0,0,0-.5,5.94c0,1.25,0,2.37.09,3.32.07,1.16.19,2.08.28,2.68h0A.68.68,0,0,0,245.2,123.46Z" transform="translate(-9.04 -10.78)"/><path class="cls-23" d="M238.7,146.65a20.1,20.1,0,0,1-4.84,3.54l-.12.07-.14-.08h0c-.51-.31-2.25-1.38-4.59-3.14-6.12-4.61-16.34-13.93-19.26-26.49l0-.05a31.14,31.14,0,0,1-.7-4.59h0c0-.41-.06-.82-.07-1.24a64.43,64.43,0,0,0,5.55,9.92c4.14,6.06,10.35,12.67,17.77,12.71,6.42,0,9.71-4.35,11.38-8.4a22.92,22.92,0,0,0,1.35-4.6v0c.07-.36.12-.68.17-1h0c0-.14,0-.26,0-.37.06-.45.08-.71.08-.71S247.77,137.58,238.7,146.65Z" transform="translate(-9.04 -10.78)"/><path class="cls-24" d="M238.7,146.65a20.1,20.1,0,0,1-4.84,3.54h-.27c-.51-.31-2.25-1.38-4.59-3.14-6.12-4.61-16.34-13.93-19.26-26.49l0-.05a31.14,31.14,0,0,1-.7-4.59h0c0-.41-.06-.82-.07-1.24a64.43,64.43,0,0,0,5.55,9.92s4,11.1,12.78,16.6c4.38,2.75,7.7,2.35,10.14.73a15.09,15.09,0,0,0,5-6.54,15.38,15.38,0,0,0,1.28-5.58q0-.5,0-.9a22.92,22.92,0,0,0,1.35-4.6v0c.07-.36.12-.68.17-1h0c0-.14,0-.26,0-.37.06-.45.08-.71.08-.71S247.77,137.58,238.7,146.65Z" transform="translate(-9.04 -10.78)"/><path class="cls-25" d="M294.86,237.34l-.16.08c-.82.1-3.37-.46-6.71-3.35h0s0,0,0,0l0,0c-2.8-2.45-6.16-6.54-9.51-13.24-6.7-13.39-8.62-22.33-8.93-23.89l0-.24-3.91,6.2c-2.65,8-7.67,41-7.58,42.37s4.45,8.34,4.36,9.19v0c-.12.86-2.08,2.75-2.64,4.81-.38,1.37,2.28,5.69,4.15,8.92h0a13.13,13.13,0,0,1,1.72,3.58c0,1.51-4.74,8.9-4.74,8.9v4l-.07.07-.22.2-.18.15c-1.8,1.42-9.43,6.07-33.27,7.35-28.25,1.51-47.07-7.58-47.07-7.58l1.42-3.89s-1.32-1.13-1.42-1.7,1-1.9,1-1.9-2.84-1.51-2.84-3.41,5.69-7.76,5.5-12.79-4.55-9.47-5.12-12.31,7.39-9.85,7.39-9.85c-6.82-21.6-8.15-50.59-8.15-50.59l-1.32-1.52s-8.15,18.57-15.54,27.66c-.88,1.08-1.81,2.15-2.77,3.18a81,81,0,0,1-6.36,6.15c-5.12,4.46-9.77,7.39-11,7.16-1.9-.38-9.48-15.35-9.13-30.7.16-7.3,4.56-15.47,9.13-22,.49-.7,1-1.39,1.48-2.06a104.89,104.89,0,0,1,7.84-9.45c.58-.62.91-.95.91-.95s-1-3.35-1.75-6.26a1.6,1.6,0,0,0-.05-.21.36.36,0,0,0,0-.1.31.31,0,0,0,0-.07c-.42-1.79-.68-3.34-.44-3.72.63-1,4.3-2.15,4.93-2.9S157,139,159,137.63s5.35-2.3,16.72-6.77l1.73-.68c12.75-5.05,25.26-11.18,25.26-11.18l4.8-5.9h2.14l-.7,1.5,0,.05c.34,1.52.73,3,1.17,4.37a.36.36,0,0,0,0,.11c6.6,20.82,23.58,27.53,23.58,27.53,11.8-8.71,11.57-22.54,11.57-22.54v-1.9l2.21.66,1.51,3.6s2.56,4,12.7,8.44a60.32,60.32,0,0,1,5.57,2.85c9.28,5.27,19.6,13.42,20.39,15.15a5.61,5.61,0,0,1,.27.86h0c1.09,4.28,3.33,20.31,5.41,26a13.1,13.1,0,0,0,4.86,6.56h0a7.61,7.61,0,0,0,1.94,1q.24,1.32.45,2.61C305,217.43,296.72,236,294.86,237.34Z" transform="translate(-9.04 -10.78)"/><path class="cls-26" d="M186,185.58l-8.24,2.77-1.32-1.52s-8.15,18.57-15.54,27.66c-.88,1.08-1.81,2.15-2.77,3.18a81,81,0,0,1-6.36,6.15l-6.28-27.07-3.19-20.55a104.89,104.89,0,0,1,7.84-9.45c.58-.62.91-.95.91-.95s-1-3.35-1.75-6.26a1.6,1.6,0,0,0-.05-.21.36.36,0,0,0,0-.1.31.31,0,0,0,0-.07c-.42-1.79-.68-3.34-.44-3.72.63-1,4.3-2.15,4.93-2.9S157,139,159,137.63c0,0-1.32,12.25,5.69,27.79l3.41,4.8,10,8S181.9,183.27,186,185.58Z" transform="translate(-9.04 -10.78)"/><path class="cls-27" d="M162.19,207.74C160.42,220.87,140.85,231,140.85,231c-4.36,0-9.23-7.58-13.65-16.93s-4.69-36.21-4.92-37.87-2.7-5-2.85-6.4,4-4.36,4-4.36l0-.07,0-.07c-.43-.92-2.85-6.11-2.68-7.06s4.82-3.31,4.82-3.31l.29,5.11s10.78-2,14.43-10.39l.64-2.56,1.8,1.2v11s.37,1.71.94,1.71,4.77-2.1,5.65-1.81,1.76,6.17,2.94,6.92,4.3,2.94,4.77,4a19,19,0,0,1,.25,4.15,42.4,42.4,0,0,0,.41,6.94C158.28,184.08,164,194.6,162.19,207.74Z" transform="translate(-9.04 -10.78)"/><path class="cls-28" d="M341.18,196.49c-.88,1.39-5.3,4.3-6.44,5.44s0,4.87,0,4.87a153.35,153.35,0,0,1-39.88,30.54l-.16.08c-11.66-7.84-10.66-20.75-6.79-31.63a82.1,82.1,0,0,1,10.32-19.38h0a24.41,24.41,0,0,1,5.92-1.64,3.59,3.59,0,0,1,2.19.68c1.42.88,2.62,2.27,3.78,1.69,1.71-.86,5.53-9.89,8.12-10.14,1.81-.17,4.32,1.67,6,2.72.73.46,1.3.77,1.58.69.95-.25,4.17-4.11,4.43-4.21s1.72,1,1.72,1l-1,1.28a35,35,0,0,0,6.76,15.22l3.47-5.08S342.07,195.1,341.18,196.49Z" transform="translate(-9.04 -10.78)"/><path class="cls-29" d="M245.25,123.07c0,.13,0,.26-.05.39a7.73,7.73,0,0,1-.19.8v0c-1.19,4.41-6,8.92-12.07,6.75-6.63-2.37-19.25-29.1-19.25-29.1L215,96.22l30,24.4.33,2.31Z" transform="translate(-9.04 -10.78)"/><path class="cls-30" d="M145.52,118.18s-1.83-10.1-1-17.55a80.9,80.9,0,0,0-.21-15.92,4.06,4.06,0,0,0-3.14,0c-1.32.76-4.42,8.46-3,14.65s.32,21,.32,21h-2.09l-4.55-6.25-2.21-.63s-12.72,12-12.53,19.14l1.66,6.34,15.67-.53,10.24-11.69Z" transform="translate(-9.04 -10.78)"/><path class="cls-31" d="M129.6,113.51a81.23,81.23,0,0,0,2.12,14.78,3.54,3.54,0,0,1-3.57,3l-.8-.9s-.57,3.18-3.46,3.41L121.14,131l.71,2.27a3.87,3.87,0,0,1-3.6,2.32s-4.36-3.41-4.64-7.86l4.31-3.65v-2.79l5.12-3.6.09-2A12,12,0,0,1,129.6,113.51Z" transform="translate(-9.04 -10.78)"/><path class="cls-32" d="M144.69,98.49a7.14,7.14,0,0,1-1.85,2.7,16,16,0,0,1-4.25,1.34l-.14,17.86h-2.09l-4.55-6.25s2.31,3.57,2.45,6.25l-1.8.89-1.56-5.35-.74,3.85.73,4.79a12.58,12.58,0,0,1,7.58-2.41l.73,1.33s-8.82,7.31-10.86,11.62c0,0,4.36-5.54,14.31-11.65l.94-2.94,1.26-7S143.66,103.41,144.69,98.49Z" transform="translate(-9.04 -10.78)"/><path class="cls-33" d="M152.09,129.61c-.82,2.46-9.41,12.69-10.36,14.91a30,30,0,0,0-1.52,5.11C136,158.76,125.78,160,125.78,160l-.47-8.24s-5.49-3.16-6.42-4.89v0l-.11-.29a68.8,68.8,0,0,1,0-7.58l9.61-3.89c4.17-5.4,14.31-11.65,14.31-11.65l.47-2.83c-7.28-3.58-6.06-14.41-4.83-15.74a5.4,5.4,0,0,1,3.5-1.32s2.66,8.71,4.36,12.79S152.91,127.15,152.09,129.61Z" transform="translate(-9.04 -10.78)"/><path class="cls-34" d="M123.13,115.69s1.07,10,4.22,14.68A23.12,23.12,0,0,1,123,117.73Z" transform="translate(-9.04 -10.78)"/><path class="cls-34" d="M117.92,121.33s1,8,6,12.45c0,0-4.36-2.18-6-9.66Z" transform="translate(-9.04 -10.78)"/><path class="cls-35" d="M143.06,142.4s-10.83,10.52-17.75,9.38l.47,8.24a18.28,18.28,0,0,0,15.07-13A31.55,31.55,0,0,1,143.06,142.4Z" transform="translate(-9.04 -10.78)"/><path class="cls-36" d="M372.1,156.7s-10,18.19-21.6,23.78h-4l-9.19,13.93s-5.94-3.73-6.38-16a11.17,11.17,0,0,0,2.59-4.62s-3.28-2.58-4.17-4.47-1.2-7.58-1.83-9.92-6-7.2-7.2-7.83-6.63-1-6.63-1-.76-2,0-2.9,9.22-4.24,13.83-1.08a20.77,20.77,0,0,0,.82,3.67c.51,1.26,4.55,5.74,5.18,5.74s3.35-2.27,4.55-4a178.56,178.56,0,0,0,8.74-19.32.5.5,0,0,1,0-.13c0-.07.05-.14.06-.2a.93.93,0,0,0,0-.13s0,0,0-.05c1.14-3.85,7.77-11.24,11.31-13.26a2.09,2.09,0,0,1,2.33,1.51s-2.84,8.09-5.81,12.89c-.5.81-1,1.76-1.6,2.78h0c-2.53,4.65-5.38,10.74-5.79,11.63l-.05.11,1.58.81,4.27-4,4.38-4.15,10,10.61-1,1.26-3.14,4,1.59.29,3.7-4.09Z" transform="translate(-9.04 -10.78)"/><path class="cls-37" d="M369.77,160.57l-3.18,4.67s-17.45-13.46-21.24-14.6-5.18-.38-5.18-.38l-3.91,5s7.2,6.38,7.83,15c0,0-2.4-10.86-10.55-14.15.63,0,3.35-2.27,4.55-4a178.56,178.56,0,0,0,8.74-19.32,5,5,0,0,0,.16,3.41c.86,1.59,5.92.09,6.22,0h0l-5.8,11.63-.05.11,1.58.81,4.27-4-2.14,5,15.58,2.75-3.14,4,1.59.29Z" transform="translate(-9.04 -10.78)"/><path class="cls-38" d="M357.6,140.48s3-.44,5,3.47l-.44,1.26s3,.58,5.81,5.37a16.18,16.18,0,0,1-8.78,6.7s-2.9-.82-3.41-3.29l.57-1.58-2.27,1.71s-2.72.82-3.92-3.22Z" transform="translate(-9.04 -10.78)"/><path class="cls-39" d="M373,155.45a4.67,4.67,0,0,0-2.46-4.8l-6,6.63a3.1,3.1,0,0,0,2.78,2.59S371.44,158.48,373,155.45Z" transform="translate(-9.04 -10.78)"/><path class="cls-40" d="M329.37,169.34a44.46,44.46,0,0,0,17.15,11.14l-4.39,6.67L333,175.5l.59-1.69S329.87,171.06,329.37,169.34Z" transform="translate(-9.04 -10.78)"/><path class="cls-34" d="M362.15,145.21s-2.9,4.8-5.81,7.2l-.57,1.58s5.64-3.8,7.72-8.2A3.75,3.75,0,0,0,362.15,145.21Z" transform="translate(-9.04 -10.78)"/><path class="cls-41" d="M341.18,196.49c-.88,1.39-5.3,4.3-6.44,5.44s0,4.87,0,4.87a153.35,153.35,0,0,1-39.88,30.54l-.16.08c-1.52.19-8.91-1.89-16.3-16.67-6.7-13.39-8.62-22.33-8.93-23.89l0-.24,1.63-2.21,2.42-27.28,1.7,5.49c6.44-7.77,12.51-19.7,12.51-19.7l.27.86h0c1.09,4.28,3.33,20.31,5.41,26a13.1,13.1,0,0,0,4.86,6.56v0h0c-5.93,5.41-8.87,13.19-10.32,19.38a53.68,53.68,0,0,0-1.42,10,67.43,67.43,0,0,1,6.82-17,36.5,36.5,0,0,1,7.33-8.85,58.85,58.85,0,0,1,5.72-4.58c1.42.88,2.62,2.27,3.78,1.69-7.8,11.71-7.61,34.89-.28,30.47s9-13.8,9-13.8c-1.73-11.43-1.22-24.32.17-26.77,1.69.06,6.52,3.45,6.8,3.37a39.6,39.6,0,0,0,5.88,22.43l4.17-6.45a40,40,0,0,1-5.62-20.19c.25-.11,1.72,1,1.72,1l-1,1.28a35,35,0,0,0,6.76,15.22l3.47-5.08S342.07,195.1,341.18,196.49Z" transform="translate(-9.04 -10.78)"/><path class="cls-42" d="M260.78,280.62v4l-.07.07-.22.2-.18.15c-1.8,1.42-9.43,6.07-33.27,7.35-28.25,1.51-47.07-7.58-47.07-7.58l1.42-3.89s-1.32-1.13-1.42-1.7,1-1.9,1-1.9-2.84-1.51-2.84-3.41c0-1.71,4.64-6.66,5.39-11.31a6.76,6.76,0,0,0,.11-1.48c-.19-5-4.51-9.43-5.11-12.27a.16.16,0,0,1,0,0c-.57-2.84,7.39-9.85,7.39-9.85-6.82-21.6-8.15-50.59-8.15-50.59l-1.32-1.52s-8.15,18.57-15.54,27.66S142.74,231.36,140.85,231c-4.36,0-9.23-7.58-13.65-16.93s-4.69-36.21-4.92-37.87-2.7-5-2.85-6.4c4.74,8.15,12.29,5.75,12.29,5.75-5.47.12-8.31-10.11-8.31-10.11l0-.07,0-.07-2.67-7.05c.3.34,6.55,7.33,12.59,3,6.19-4.42,9.38-13,9.38-13v11s.37,1.71.94,1.71a134.15,134.15,0,0,1-2.74,17.29c-2.81,13.13-6.66,25.81-6.66,25.81s10.44-5.68,14.11-20.08a60.74,60.74,0,0,0,1.87-17.24,43.22,43.22,0,0,0-.84-7.21,1.6,1.6,0,0,0-.05-.21.36.36,0,0,0,0-.1.43.43,0,0,0,0,0l1,2.14,1.92,4.76c2.23,18.48-2.37,46.33-2.37,46.33,6.7-8.34,8.09-26.78,7.8-31.26-.13-2.14-.3-4.78-.41-6.94-.15-2.36-.25-4.15-.25-4.15l13.71,8.18-2.53-8,10,8s9,10.8,18.19,12.06,43.07.51,43.07.51-29.43,1.89-38,4.42-10.23,5.43-10.23,5.43c6.21,31.59,40.58,42.24,41.65,42.56C201.59,238.54,187.08,212,187.08,212s-.51,14.91,1.89,20.59,16.55,19.58,34.74,22.48a41.89,41.89,0,0,0,4.53.46c15.34.72,28-7.12,29.34-8l.11-.07,0,.05c-.49.75-6.78,9.59-32.18,10.56-1.54.06-3,.05-4.5,0h0c-23.54-1-35.53-16.67-35.53-16.67s-8.71,4.68-3.15,11.62l.18.22c1.64,1.89,5.25,4.2,9.52,6.58l.35.2c5.16,2.85,11.21,5.79,15.89,8.22l.07,0a59.23,59.23,0,0,1,6.52,3.73h0c1.32,1,1.59,1.58.3,1.73-6.57.76-31.45-4.67-32.46-3.16s1.23,5.43,1.23,5.43c22.84,11.32,71.71,5.74,73.25,5.57-40.9,10.47-74.36-2.79-74.36-2.79l1.11,3.92a146.33,146.33,0,0,0,39.69,6.82c21.48.5,34.87-5,34.87-5Z" transform="translate(-9.04 -10.78)"/><path class="cls-43" d="M244.05,190.69s16.26.88,27,3.72l-5.54,8.41A73.88,73.88,0,0,0,244.05,190.69Z" transform="translate(-9.04 -10.78)"/><path class="cls-44" d="M259.25,235.53S249.1,244,239.12,247.91a67.12,67.12,0,0,1-19.58,4.29s5.74,1.71,19.85-.56,18.95-9.92,18.95-9.92Z" transform="translate(-9.04 -10.78)"/><path class="cls-45" d="M263.8,268.13h0c-18.78,4.85-42.62-2.11-42.42-3s6.53.38,21.21-2.56c14.23-2.85,19.39-7.91,19.7-8.22-.12.86-2.08,2.75-2.64,4.81C259.27,260.58,261.93,264.9,263.8,268.13Z" transform="translate(-9.04 -10.78)"/><path class="cls-46" d="M212.79,193.23c-16,1.63-20.36,6.1-20.36,6.1-4.51.57-14.64-11-14.64-11l-1.32-1.52s-8.15,18.57-15.54,27.66c-.88,1.08-1.81,2.15-2.77,3.18l1.05-2.36s1.72-.82,2.22-9.85-3.79-22.48-3.82-24.31-.66-11.09-.66-11.09l13.71,8.18-2.53-8,10,8S182,184.12,191.89,189C201.2,193.65,211.64,193.28,212.79,193.23Z" transform="translate(-9.04 -10.78)"/><path class="cls-47" d="M176.47,186.83l9.56-1.24a71.87,71.87,0,0,0,11.48,5.65l-6.39,9.42s2.54,13.44,9.82,21c0,0-19.32-10.73-22-19.76Z" transform="translate(-9.04 -10.78)"/><path class="cls-48" d="M120.68,158.23l2.73,7.19s2.79,9.71,8.31,10.11,10.93-16.27,10.93-16.27v-11s-5.88,12.61-12.23,14S120.68,158.23,120.68,158.23Z" transform="translate(-9.04 -10.78)"/><path class="cls-49" d="M153.73,152.54s4.93,9.85,11,12.89c0,0-7.21-17.5-5.69-27.8C159,137.63,156.38,139.28,153.73,152.54Z" transform="translate(-9.04 -10.78)"/><path class="cls-50" d="M273.48,167.13l1.7,5.49,1.73,45a108.67,108.67,0,0,1-7.44-20.81l1.59-2.45S273.74,177.43,273.48,167.13Z" transform="translate(-9.04 -10.78)"/><path class="cls-51" d="M325.83,180.39s-1,22.14,8.44,24.05l.47,2.36S322.57,206.35,325.83,180.39Z" transform="translate(-9.04 -10.78)"/><path class="cls-52" d="M310.14,187.12s-.36.8-3.78-1.69c0,0-11.83,8.38-16.39,20.19,0,0,7.29-10.85,11.17-12s4.82,3.16,4.82,3.16S307.5,190.66,310.14,187.12Z" transform="translate(-9.04 -10.78)"/><path class="cls-53" d="M119.43,169.78s4.55,8.39,13.08,5.76c0,0-5.11,3.45-10.23.64C122.28,176.18,119.1,170.73,119.43,169.78Z" transform="translate(-9.04 -10.78)"/><path class="cls-54" d="M149.24,159.16s6.26,23.4-10.07,41a27.1,27.1,0,0,0,13-18A38.79,38.79,0,0,0,149.24,159.16Z" transform="translate(-9.04 -10.78)"/><path class="cls-55" d="M261.38,140.46s-.7,10.57-5.77,18.14-15.1,12.7-15.1,12.7,12.6-4.64,18.38-11.18S261.38,140.46,261.38,140.46Z" transform="translate(-9.04 -10.78)"/><path class="cls-56" d="M196.93,124.57a66.82,66.82,0,0,0,2.84,17.83c2.84,9,27.51,24.73,27.51,24.73s-25.42-10.56-30.35-20.06S196.93,124.57,196.93,124.57Z" transform="translate(-9.04 -10.78)"/><path class="cls-57" d="M249,126.48c-.78,9.3-3.61,15.78-6.63,20.15-4.16,6-8.66,8.05-8.66,8.05A52,52,0,0,1,222,147.59a60,60,0,0,1-19.21-28.5c6,14.54,14.86,23.35,21.56,28.31a43.28,43.28,0,0,0,9.41,5.52v-4.65a30.9,30.9,0,0,1-3.1-1.36c-11.8-5.95-18-18.35-20.9-26.37l0-.05a57,57,0,0,1-2.18-7.39h2.14l-.7,1.5,0,.05c.34,1.52.73,3,1.17,4.37a.36.36,0,0,0,0,.11c6.6,20.82,23.58,27.53,23.58,27.53,11.8-8.71,11.57-22.54,11.57-22.54v-1.9l2.21.66Z" transform="translate(-9.04 -10.78)"/><path class="cls-58" d="M319,177s-3.21,10.48-.17,26.77c0,0,1.51-20.65,2.65-22.45s4.32-1,4.32-1A74.72,74.72,0,0,0,319,177Z" transform="translate(-9.04 -10.78)"/><path class="cls-59" d="M287.91,234c-2.8-2.45-6.16-6.54-9.51-13.24-6.7-13.39-8.62-22.33-8.93-23.89l1.59-2.45,2.13-20.6,2-1.19a84.28,84.28,0,0,0,12.51-19.7,5.61,5.61,0,0,1,.27.86h0c1.09,4.28,3.33,20.31,5.41,26a13.1,13.1,0,0,0,4.86,6.56s-12.31,18.26-12.91,31.29C284.79,229.53,287.43,233.39,287.91,234Z" transform="translate(-9.04 -10.78)"/><path class="cls-60" d="M214.82,272.07s-22.19-3.64-31.25-9.48h0a6.76,6.76,0,0,0,.11-1.48c-.19-5-4.51-9.43-5.11-12.27.1.27.75,1.77,3.9,4.47a66.94,66.94,0,0,0,9.52,6.58l.35.2c6.4,3.78,11.91,6.34,15.89,8.22l.07,0c3.58,1.68,5.9,2.79,6.52,3.73Z" transform="translate(-9.04 -10.78)"/><path class="cls-61" d="M262.29,254.4c-.12.86-2.08,2.75-2.64,4.81,0,0-8.14,8.62-38.27,6,.2-.85,6.53.38,21.21-2.56C256.82,259.77,262,254.71,262.29,254.4Z" transform="translate(-9.04 -10.78)"/><path class="cls-62" d="M267.3,137.77,248,144l-5.64,2.62h-8.66l-3.1.25L229,147l-4.67.37-2.35.19-23.1-8.36-4.13-1.49-19-6.88,1.73-.68c12.75-5.05,25.26-11.18,25.26-11.18l4.8-5.9h2.14a71.16,71.16,0,0,0,4-11.17L215,96.22c.09-.55.13-.85.13-.85l6.8,3.59,22.93,18.34c0,1.25,0,2.37.09,3.32l.33,2.31c.06-.45.08-.71.08-.71l2.21.66,1.51,3.6s2.56,4,12.7,8.44A60.32,60.32,0,0,1,267.3,137.77Z" transform="translate(-9.04 -10.78)"/><path class="cls-63" d="M252.63,120.2a31.37,31.37,0,0,1-18.89-2.78c-9.91-4.8-18.24-19-18.75-22.48s3.79-12.76,3.79-20-3.53-19.58,2.4-26.28,33.22-7.7,42.07.89c0,0,2.74,6.88,2.74,10.77a28.33,28.33,0,0,1-.42,3.91c-.08.59-.19,1.22-.29,1.87-.79,4.71-1.88,10.46-1.37,13a12.64,12.64,0,0,0,.79,2.46h0c1.09,2.52,2.71,4.53,3,6.71C268.08,91.15,264.26,111.36,252.63,120.2Z" transform="translate(-9.04 -10.78)"/><path class="cls-64" d="M218.71,73s-2.45-6.15-8.61-6.24c0,0-3.6,1.42-4.17,4.17,0,0,1.33,10,2.84,14.59s7.08,4,7.08,4A23.61,23.61,0,0,0,218.71,73Z" transform="translate(-9.04 -10.78)"/><path class="cls-65" d="M242.37,93.21a5.65,5.65,0,0,1,2.94.5c.88.66,4.1,3.79,8.18,4.64s6.8-2.61,7.67-2.79,1.82,1,1.82,1a3.42,3.42,0,0,0-2.49-2.07s-.86,3.27-6.77,2.15S245.31,93,245.31,93l-.3-.54A15.61,15.61,0,0,0,242.37,93.21Z" transform="translate(-9.04 -10.78)"/><path class="cls-66" d="M233.66,62.61l.08-.63s5.89-10.33,17.54-10.62,14.29,7,14.29,7l2.16-3.28-4.92-10-34.24-.57-8.33,6.73-1.06,16.46,3.71,21.74,9,4.81L234.45,92c-.94-7.28-6.35-13.93-6.35-13.93l4-2.74s10.13,4.91,16,3.44c0,0,4.41-12.86,4.15-22.39C252.19,56.4,237.18,58.63,233.66,62.61Z" transform="translate(-9.04 -10.78)"/><path class="cls-67" d="M233.14,63.38s.57-3.72,6.85-5.21c7-1.66,12.69-3.07,12.69-3.07s-1.24,4.09-3.57,5.62c0,0-7.41-.27-11.16.58S233.14,63.38,233.14,63.38Z" transform="translate(-9.04 -10.78)"/><path class="cls-67" d="M265.57,58.38s-3.56,2.74-6,9.28c0,0,2.32-3,4.45-3a1.23,1.23,0,0,1,1.23,1.48A13.69,13.69,0,0,0,265.57,58.38Z" transform="translate(-9.04 -10.78)"/><path class="cls-68" d="M235.49,73.91s.38-7.86,8-9.85a16,16,0,0,1,3,7.58S242.5,70.88,235.49,73.91Z" transform="translate(-9.04 -10.78)"/><path class="cls-69" d="M257.47,77s.62-6.26,4.21-8.58c0,0,2.45,1.84,2.2,7.08C263.88,75.54,261.73,74.76,257.47,77Z" transform="translate(-9.04 -10.78)"/><path class="cls-70" d="M235.49,73.91S238,77,245,77.57a10.87,10.87,0,0,0,1.2-6S239.75,71,235.49,73.91Z" transform="translate(-9.04 -10.78)"/><path class="cls-70" d="M257.47,77V78s1.07,2.24,4.92,2.62a10.63,10.63,0,0,0,1.35-5.07S261.29,74.89,257.47,77Z" transform="translate(-9.04 -10.78)"/><path class="cls-71" d="M243,71.42A8.67,8.67,0,0,0,241.34,77a25.62,25.62,0,0,0,3.62.6,9.36,9.36,0,0,0,1.2-6A9.68,9.68,0,0,0,243,71.42Z" transform="translate(-9.04 -10.78)"/><path class="cls-71" d="M261.12,75.61s-1,1.07-1.19,4.36a7.52,7.52,0,0,0,2.46.6,9.08,9.08,0,0,0,1.35-5.07A4.44,4.44,0,0,0,261.12,75.61Z" transform="translate(-9.04 -10.78)"/><path class="cls-67" d="M242.37,77.21s-.63-4.25,1.8-5.88l2,.26a8.56,8.56,0,0,1-1.2,6S243,77.35,242.37,77.21Z" transform="translate(-9.04 -10.78)"/><path class="cls-67" d="M262,75.42a18.29,18.29,0,0,0-1.32,4.83,5.55,5.55,0,0,0,1.71.32,8.23,8.23,0,0,0,1.35-5.07A4,4,0,0,0,262,75.42Z" transform="translate(-9.04 -10.78)"/><path class="cls-72" d="M235.49,73.91s4.64-2.7,12.55-1.16l-1.47-1.11A13.19,13.19,0,0,0,235.49,73.91Z" transform="translate(-9.04 -10.78)"/><path class="cls-72" d="M257.47,77a12.49,12.49,0,0,1,8.06-.93l-1.79-1.33S260.83,74.34,257.47,77Z" transform="translate(-9.04 -10.78)"/><path class="cls-13" d="M240.51,73.91a2.74,2.74,0,0,1,2.4.87A2.18,2.18,0,0,1,240.51,73.91Z" transform="translate(-9.04 -10.78)"/><path class="cls-13" d="M259.17,77.57s2-.38,2.67.52C261.84,78.09,260.78,78.82,259.17,77.57Z" transform="translate(-9.04 -10.78)"/><path class="cls-73" d="M236,74.37a18.13,18.13,0,0,0,9.38,4.42l.15-2.11-.53.89S239.41,77.24,236,74.37Z" transform="translate(-9.04 -10.78)"/><path class="cls-73" d="M257.47,78s.64,2.31,5.34,3.35l-.15-1.13-.27.4S259.05,80.15,257.47,78Z" transform="translate(-9.04 -10.78)"/><path class="cls-74" d="M248,87.17a16.67,16.67,0,0,1,5,0c3.23.38,6.85,1.27,8.83,0,0,0-2.63,2.63-4.91,3s-5.75-1.6-5.75-1.6l-1.51,0A4.1,4.1,0,0,1,248,87.17Z" transform="translate(-9.04 -10.78)"/><path class="cls-75" d="M249.89,88.63a2.39,2.39,0,0,1,1.45-.38c.66.12,1.34,1.09,1.34,1.09A6.61,6.61,0,0,0,249.89,88.63Z" transform="translate(-9.04 -10.78)"/><path class="cls-76" d="M261.84,87.17c.84-.82-3.52-8.58-5.6-8.87s-4.05,8.7-4.05,8.7l5.71.79C260.71,88.16,261.84,87.17,261.84,87.17Z" transform="translate(-9.04 -10.78)"/><path class="cls-77" d="M265,62.73c-1.18-.15-5.35,4.92-5.35,4.92s-2.65,8.21-2.13,10.64,7,3.73,7,3.73l.27-.43h0a12.64,12.64,0,0,1-.79-2.46c-.51-2.52.58-8.27,1.37-13a9.67,9.67,0,0,0,.29-1.87C265.6,63.51,265.49,62.79,265,62.73Z" transform="translate(-9.04 -10.78)"/><path class="cls-78" d="M264.76,96.07c-1.33-2.78-.51-4.23-12.06-5.74-16.35-2.15-17.75,2.84-20.53,2.08a2.67,2.67,0,0,1-.33-.12c-3-1.17-10.1-8.14-10.28-17.53-.19-9.76,6.35-16.68,6.35-16.68-2.37-2-3.32-7.76-.76-10.23s6.92-1.89,17.62-.76,10.71.48,10.71.48c3.4.87,5.35,4.06,5.9,5.08.11.2.16.32.16.32l1.33-1.23a17.42,17.42,0,0,1,2.94,10.89S271.68,50.69,271,49a45.38,45.38,0,0,0-4.82-8h0s-.95-9.09-3.79-9.09-15,2.74-15,2.74A17.22,17.22,0,0,0,248.56,28l-.05.05c-4,3.55-7.83,3.94-13.31,6.48a13.87,13.87,0,0,0-5.13,3.72l-.37.44-.39.47c-.38.48-.77,1-1.24,1.47a.33.33,0,0,1-.06.06l0,0a15.68,15.68,0,0,1-1.59,1.49c-3.6,2.93-11.52,4.89-12.47,8s1.2,7.32,2.34,11.68a23.73,23.73,0,0,1,.61,8.21,16.13,16.13,0,0,1,2.52,12c-1.11,6.37-3.54,7.41-3.54,7.41a10.91,10.91,0,0,0-.9,6.79c3.5,13.92,18,22.21,18,22.21,12.88,4.8,21.35,2.71,21.35,2.71h0C263.66,115,266.87,94.8,267,93.86,266.85,94.11,265.11,96.81,264.76,96.07ZM259,109c-2.27-.38-2.75-6.13-3.5-6.89s-4.87-.44-4.87-.44-3.79,4.3-5.3,4.42-9.6-3.16-7.85-8.08,7.85-5.56,7.85-5.56a14.8,14.8,0,0,0,7.89,3c4.74.31,6.45-.56,7-.81s3.62,1.13,3.54,5.43C263.7,103,261.26,109.34,259,109Z" transform="translate(-9.04 -10.78)"/><path class="cls-79" d="M258.39,80s4.08,5.07,3.7,7c-.43,2.09-5.16,3.2-5.16,3.2s3.79-1.3,4.57-3.2A25.27,25.27,0,0,0,258.39,80Z" transform="translate(-9.04 -10.78)"/><path class="cls-80" d="M265.81,62.63a17.42,17.42,0,0,0-2.94-10.89A29.09,29.09,0,0,0,266.18,41h0a36.71,36.71,0,0,1,1.54,7.1L271,49C271.68,50.69,265.81,62.63,265.81,62.63Z" transform="translate(-9.04 -10.78)"/><path class="cls-81" d="M232.93,118.43a48.2,48.2,0,0,1,11.88-.83c7.14.29,11.24.32,9.47,3.54C254.28,121.14,245.31,123.17,232.93,118.43Z" transform="translate(-9.04 -10.78)"/><path class="cls-82" d="M257.75,34.21s4.34-1.69,6.06-1.41a3.36,3.36,0,0,0-1.39-1.1c-.71-.19-15,3-15,3S256.33,33.65,257.75,34.21Z" transform="translate(-9.04 -10.78)"/><path class="cls-83" d="M248.94,35.82s-.34,4.73-1.85,6.44L229.4,44.52l-5.19-.91a13.08,13.08,0,0,0,4.22-3.44C230.63,37.6,242.17,35.07,248.94,35.82Z" transform="translate(-9.04 -10.78)"/><path class="cls-84" d="M266.18,41a40,40,0,0,1,1.55,7.11L271,49A23.56,23.56,0,0,0,266.18,41Z" transform="translate(-9.04 -10.78)"/><path class="cls-85" d="M218,81.3s-1.25-6-4.3-8.92a7.18,7.18,0,0,0-6.52-2s1,11.07,1.94,13.77,2.51,3.41,2.51,3.41A8.52,8.52,0,0,1,209.2,82c-.29-3.66-.38-8.82.42-9.44s4.06,1.79,4.06,1.79A10.93,10.93,0,0,0,212,78.89c-.62,3.26,1.66,5.63,2.51,5.58s-.05-3.77.1-4.84S216.68,78.79,218,81.3Z" transform="translate(-9.04 -10.78)"/><path class="cls-86" d="M214.94,73.88a7.45,7.45,0,0,0-3,6.67c.35,4.49,2.92,4.29,2.93,3.35s-.49-3.36-.23-4.73,2.47-.76,2.47-.76A32.67,32.67,0,0,0,214.94,73.88Z" transform="translate(-9.04 -10.78)"/><path class="cls-87" d="M267,93.86s-4.14,18.88-12.73,27.28C254.28,121.14,264.08,117.29,267,93.86Z" transform="translate(-9.04 -10.78)"/><path class="cls-87" d="M262.42,31.7s2.18,1.7,2.59,7.6-2.14,12.44-2.14,12.44a23.66,23.66,0,0,0,3.6-10.26C266.78,36.11,264.15,32.38,262.42,31.7Z" transform="translate(-9.04 -10.78)"/><path class="cls-88" d="M236,44.05a50.85,50.85,0,0,0,10.59,2.22l6.68.59s-2.23-2.16-7-2.81A48.08,48.08,0,0,0,236,44.05Z" transform="translate(-9.04 -10.78)"/><path class="cls-89" d="M260.39,94.28s2.41,0,3.36,3a25.24,25.24,0,0,1,1,4.5l.86-3.32s-1.12-4.21-2.28-5.16c-.84-.68-2.28-1.37-3-1.21Z" transform="translate(-9.04 -10.78)"/><path class="cls-90" d="M253.87,91.25l.41,3.6a13,13,0,0,0,4.89-.57l.35-2.18A26.89,26.89,0,0,0,253.87,91.25Z" transform="translate(-9.04 -10.78)"/><path class="cls-87" d="M267.3,137.77s17.23,12.59,19.46,16.91,3.14,17.91,6.17,23.78c0,0-2.07-9.61-3.52-17.14s-1.1-7.64-1.91-9.49S273.83,141.06,267.3,137.77Z" transform="translate(-9.04 -10.78)"/><path class="cls-87" d="M264.21,207.82s-8.3,35.54-7.92,37.94,5.75,7.3,6,8.64c0,0-4.11,5.51-3.92,6.72s7.2,8.93,7,11.31c-.05.69-4.6,8.19-4.6,8.19s5.14-7.37,5.39-8.55-6.29-11-6.49-12c-.49-2.59,3.27-4.5,3.4-6.2s-5.1-5.88-5.14-8.66S264.21,207.82,264.21,207.82Z" transform="translate(-9.04 -10.78)"/><path class="cls-87" d="M265.9,292.54s18,40.64,24.07,81.27C290,373.81,289,334.16,265.9,292.54Z" transform="translate(-9.04 -10.78)"/><path class="cls-76" d="M152.09,129.61s-4.64-1-6.57-5-.67-9.92-.67-9.92A102.24,102.24,0,0,0,150.3,124C152.11,126.39,152.6,129.11,152.09,129.61Z" transform="translate(-9.04 -10.78)"/><path class="cls-91" d="M295.4,108.43l3.22,91.8a6.76,6.76,0,0,0,6.76,6.52H463.51a6.76,6.76,0,0,0,6.76-6.6l2.22-92.87a6.76,6.76,0,0,0-6.81-6.92l-163.57,1.07A6.76,6.76,0,0,0,295.4,108.43Z" transform="translate(-9.04 -10.78)"/><path class="cls-92" d="M463.51,207H305.38a7,7,0,0,1-7-6.77l-3.22-91.79a7,7,0,0,1,7-7.26l163.57-1.08a7.11,7.11,0,0,1,5.05,2.1,7,7,0,0,1,2,5.09l-2.22,92.86A7,7,0,0,1,463.51,207Zm2.22-106.4h-.05l-163.56,1.08a6.51,6.51,0,0,0-6.47,6.74l3.22,91.8a6.48,6.48,0,0,0,6.51,6.28H463.51a6.55,6.55,0,0,0,6.51-6.36l2.22-92.87a6.52,6.52,0,0,0-6.51-6.67Z" transform="translate(-9.04 -10.78)"/><path class="cls-93" d="M295.63,113.1H472.3l.28-4.84a7.4,7.4,0,0,0-7.46-7.84l-163.5,1.29a6.13,6.13,0,0,0-6.08,6.25Z" transform="translate(-9.04 -10.78)"/><polygon class="cls-94" points="295.48 109.73 295.48 162.86 349.56 162.86 349.56 109.45 295.48 109.73"/><rect class="cls-95" x="401.81" y="113.3" width="23.52" height="23.52"/><rect class="cls-96" x="429.57" y="113.3" width="23.52" height="23.52"/><rect class="cls-97" x="373.6" y="113.3" width="23.52" height="23.52"/><rect class="cls-98" x="392.94" y="150.54" width="60.15" height="5.63"/><rect class="cls-98" x="377.89" y="159.11" width="75.2" height="1.74"/><rect class="cls-98" x="378.6" y="139.82" width="14.39" height="1.74"/><rect class="cls-98" x="406.38" y="139.82" width="14.39" height="1.74"/><rect class="cls-98" x="434.14" y="139.82" width="14.39" height="1.74"/><rect class="cls-98" x="373.6" y="161.94" width="24.19" height="1.74"/><rect class="cls-98" x="377.89" y="164.75" width="75.2" height="1.74"/><rect class="cls-98" x="373.6" y="167.55" width="79.49" height="1.74"/><rect class="cls-98" x="373.6" y="170.35" width="79.49" height="1.74"/><rect class="cls-98" x="377.89" y="181.67" width="75.2" height="1.74"/><rect class="cls-98" x="373.6" y="184.47" width="79.49" height="1.74"/><rect class="cls-98" x="373.6" y="187.27" width="79.49" height="1.74"/><rect class="cls-98" x="373.6" y="173.15" width="76.3" height="1.74"/><rect class="cls-98" x="377.89" y="175.95" width="75.2" height="1.74"/><rect class="cls-98" x="373.6" y="178.75" width="64.41" height="1.74"/><g class="cls-99"><path class="cls-100" d="M319.67,163a15.39,15.39,0,1,1,15.38-15.38A15.41,15.41,0,0,1,319.67,163Zm0-29.77a14.39,14.39,0,1,0,14.38,14.39A14.41,14.41,0,0,0,319.67,133.21Z" transform="translate(-9.04 -10.78)"/></g><circle class="cls-13" cx="310.63" cy="136.82" r="8.36"/><g class="cls-99"><path class="cls-100" d="M358.59,135.62A15.39,15.39,0,1,1,374,120.23,15.41,15.41,0,0,1,358.59,135.62Zm0-29.77A14.39,14.39,0,1,0,373,120.23,14.4,14.4,0,0,0,358.59,105.85Z" transform="translate(-9.04 -10.78)"/></g><circle class="cls-13" cx="358.59" cy="120.23" r="7.87" transform="matrix(0.16, -0.99, 0.99, 0.16, 175.04, 445)"/><g class="cls-99"><polygon class="cls-13" points="292.79 95.12 293.91 93.41 299.99 98.74 299.06 100.04 292.79 95.12"/><polygon class="cls-13" points="300.15 95.12 299.02 93.41 292.94 98.74 293.88 100.04 300.15 95.12"/></g><rect class="cls-13" x="404.55" y="94.57" width="54.44" height="2.73"/><polygon class="cls-101" points="118.05 55.16 118.05 78.78 146.31 79.03 146.69 54.4 118.05 55.16"/><polygon class="cls-102" points="146.69 54.4 148.53 57.51 147.61 79 146.31 79.03 146.69 54.4"/><polygon class="cls-13" points="123.1 63.13 125.71 59.35 139.82 71.19 137.65 74.08 123.1 63.13"/><polygon class="cls-13" points="140.18 63.13 137.57 59.35 123.46 71.19 125.63 74.08 140.18 63.13"/><path class="cls-103" d="M193,344H96.32a7.93,7.93,0,0,1-7.92-7.74L86.6,257a7.92,7.92,0,0,1,7.92-8.1H195.19A7.92,7.92,0,0,1,203.1,257l-2.17,79.3A7.93,7.93,0,0,1,193,344Z" transform="translate(-9.04 -10.78)"/><path class="cls-104" d="M193,344.25H96.32a8.23,8.23,0,0,1-8.17-8L86.35,257a8.16,8.16,0,0,1,8.17-8.36H195.19a8.16,8.16,0,0,1,8.16,8.39l-2.17,79.31A8.13,8.13,0,0,1,193,344.25ZM94.52,249.1A7.67,7.67,0,0,0,86.85,257l1.8,79.3a7.73,7.73,0,0,0,7.67,7.5H193a7.64,7.64,0,0,0,7.67-7.46L202.85,257a7.67,7.67,0,0,0-7.66-7.88Z" transform="translate(-9.04 -10.78)"/><rect class="cls-13" x="103.63" y="254.3" width="50.85" height="2.18"/><rect class="cls-13" x="103.63" y="259.59" width="25.42" height="2.18"/><rect class="cls-13" x="103.63" y="264.01" width="25.42" height="2.18"/><rect class="cls-13" x="131.9" y="264.01" width="20.23" height="2.18"/><rect class="cls-13" x="103.63" y="268.43" width="40.99" height="2.18"/><rect class="cls-13" x="103.63" y="272.85" width="14.59" height="2.18"/><rect class="cls-13" x="121.22" y="286.12" width="25.23" height="2.18"/><rect class="cls-13" x="103.63" y="277.28" width="45.73" height="2.18"/><rect class="cls-13" x="103.63" y="281.7" width="35.18" height="2.18"/><rect class="cls-13" x="103.63" y="286.12" width="16.55" height="2.18"/><rect class="cls-13" x="103.63" y="290.54" width="25.42" height="2.18"/><rect class="cls-13" x="103.63" y="294.96" width="7.29" height="2.18"/><rect class="cls-13" x="113.92" y="294.96" width="26.46" height="2.18"/><rect class="cls-13" x="121.22" y="299.25" width="25.23" height="2.18"/><rect class="cls-13" x="103.63" y="299.25" width="16.55" height="2.18"/><rect class="cls-13" x="103.63" y="303.67" width="25.42" height="2.18"/><rect class="cls-13" x="103.63" y="308.09" width="7.29" height="2.18"/><rect class="cls-13" x="113.92" y="308.09" width="26.46" height="2.18"/><path class="cls-105" d="M452.46,82.65A4.47,4.47,0,1,1,448,78.19,4.47,4.47,0,0,1,452.46,82.65Z" transform="translate(-9.04 -10.78)"/><path class="cls-106" d="M33.56,186.29A5.57,5.57,0,1,1,28,180.73,5.56,5.56,0,0,1,33.56,186.29Z" transform="translate(-9.04 -10.78)"/><circle class="cls-107" cx="452.08" cy="71.88" r="4.47"/><circle class="cls-108" cx="163.91" cy="102.6" r="3.16"/><circle class="cls-109" cx="375.56" cy="242.04" r="3.16"/><circle class="cls-110" cx="47.04" cy="273.55" r="2.82"/><path class="cls-111" d="M104.23,256.59H55.44a7.29,7.29,0,0,1-7.28-7l-1.09-32.1a7.29,7.29,0,0,1,7.28-7.53h50.87a7.29,7.29,0,0,1,7.28,7.51l-1,32.1A7.28,7.28,0,0,1,104.23,256.59Z" transform="translate(-9.04 -10.78)"/><path class="cls-112" d="M104.23,256.84H55.44a7.5,7.5,0,0,1-7.53-7.28l-1.09-32.1a7.55,7.55,0,0,1,7.53-7.79h50.87a7.55,7.55,0,0,1,7.53,7.77l-1,32.09A7.5,7.5,0,0,1,104.23,256.84ZM54.35,210.17a7.05,7.05,0,0,0-7,7.27l1.09,32.1a7,7,0,0,0,7,6.8h48.79a7,7,0,0,0,7-6.82l1-32.1a7.05,7.05,0,0,0-7-7.25Z" transform="translate(-9.04 -10.78)"/><polygon class="cls-13" points="59.41 210.68 47.38 224.62 59.63 235.03 59.63 229.66 52.54 223.52 59.12 216.08 59.41 210.68"/><polygon class="cls-13" points="80.56 211.3 92.59 225.25 80.34 235.65 80.34 230.28 87.42 224.15 79.54 215.8 80.56 211.3"/><polygon class="cls-13" points="62.03 235.03 72.51 211.93 77.44 211.93 65.57 235.03 62.03 235.03"/><path class="cls-113" d="M432.56,322.64h-61a9.12,9.12,0,0,1-9.11-8.81l-1.36-40.15a9.12,9.12,0,0,1,9.11-9.42h63.63a9.12,9.12,0,0,1,9.11,9.39l-1.23,40.15A9.12,9.12,0,0,1,432.56,322.64Z" transform="translate(-9.04 -10.78)"/><path class="cls-112" d="M432.56,322.89h-61a9.33,9.33,0,0,1-9.36-9.05l-1.36-40.15a9.38,9.38,0,0,1,9.36-9.68h63.63a9.36,9.36,0,0,1,9.36,9.65l-1.23,40.15A9.33,9.33,0,0,1,432.56,322.89Zm-62.4-58.38a8.87,8.87,0,0,0-8.86,9.16l1.36,40.15a8.82,8.82,0,0,0,8.86,8.57h61a8.83,8.83,0,0,0,8.86-8.59l1.23-40.16a8.86,8.86,0,0,0-8.86-9.13Z" transform="translate(-9.04 -10.78)"/><rect class="cls-98" x="364.25" y="259.95" width="55.91" height="33.21"/><polygon class="cls-13" points="387.25 268.19 387.25 284.92 401.54 275.79 387.25 268.19"/><rect class="cls-98" x="364.25" y="299.27" width="55.91" height="3.04"/><rect class="cls-13" x="364.25" y="299.27" width="14.47" height="3.04"/><path class="cls-114" d="M332.33,260.23l-2.92,8.35C331,264,333.34,261,332.33,260.23Zm-2.92,8.35-2.93,8.35C327.22,276.71,327.79,273.19,329.41,268.58Zm2.92-8.35-2.92,8.35C331,264,333.34,261,332.33,260.23Zm-2.92,8.35-2.93,8.35C327.22,276.71,327.79,273.19,329.41,268.58Zm8.42,7.23,2.84,1.61,3.06-8.35-3.28-.55c.06-.31.11-.62.16-.93a22.07,22.07,0,0,0,.27-4.16l3.43-2.15-1.56-7.36-3.29,3.14a9.41,9.41,0,0,0-1.68-2.45,5.9,5.9,0,0,0-.57-.55l2-4.64-5.34-1.74h0l-1.29,4.67a9.06,9.06,0,0,0-3.62.85l-.59-4.42-5.89,4.46,1.36,3.91a22.39,22.39,0,0,0-2.87,4.19l-2.84-1.6-3.06,8.35,3.28.55a22.54,22.54,0,0,0-.43,5.09l-3.43,2.15,1.56,7.36,3.29-3.15a9.07,9.07,0,0,0,2.25,3l-2,4.65,5.26,2.05.82-3,.55-2a8.93,8.93,0,0,0,3.63-.84l.58,4.41,5.89-4.45L335,280a21.67,21.67,0,0,0,2.31-3.2C337.47,276.47,337.65,276.15,337.83,275.81Zm-8.42-7.23c-1.62,4.61,0,9.37-2.93,8.35s-4-5.6-2.38-10.21,5.3-7.51,8.23-6.49S331,264,329.41,268.58Zm2.92-8.35-2.92,8.35C331,264,333.34,261,332.33,260.23Zm-2.92,8.35-2.93,8.35C327.22,276.71,327.79,273.19,329.41,268.58Z" transform="translate(-9.04 -10.78)"/><path class="cls-115" d="M340.67,277.42l3.06-8.35-3.12-1.48-.51-.24.33-4.6,3.46-1.69-1.14-7.14-7.55-2.46,1.39,3.32,2.63-5.36-5.34-1.74-2.2-.72-5.27-2.05-1,3.59-4.58-2.18L315,250.78l1.78,4.82-5.5,15.26-2.72,9.92,5.23.57L312,285.28l5.28,2.05,7.54,2.46-1.21-2.42-.76-1.45,2.79.9,4.76,1.55,5.89-4.45-3.64-4.29,4.59-2.83Zm-16.57-10.7c1.62-4.61,5.3-7.51,8.23-6.49l-2.92,8.35-2.93,8.35C323.55,275.89,322.48,271.33,324.1,266.72Z" transform="translate(-9.04 -10.78)"/><path class="cls-116" d="M333.12,275l3.06-8.36-3.28-.55a23,23,0,0,0,.44-5.08l3.43-2.15-1.57-7.36-3.28,3.14a9.32,9.32,0,0,0-2.25-3l2-4.64-5.27-2.05-1.37,5a8.93,8.93,0,0,0-3.62.85l-.58-4.42L315,250.78l1.35,3.91a22.88,22.88,0,0,0-2.87,4.19l-2.84-1.6-3,8.35,3.28.55a22.53,22.53,0,0,0-.44,5.08L307,273.42l1.56,7.35,3.29-3.14a9.07,9.07,0,0,0,2.25,3l-2,4.65,5.27,2.05,1.36-5a8.93,8.93,0,0,0,3.63-.84l.58,4.41,5.89-4.45-1.36-3.92a22.91,22.91,0,0,0,2.88-4.19Zm-14.19-.5c-2.92-1-4-5.59-2.38-10.2s5.3-7.51,8.23-6.49,4,5.6,2.38,10.21S321.86,275.49,318.93,274.46Z" transform="translate(-9.04 -10.78)"/><polygon class="cls-117" points="335.27 250.5 327.73 248.04 324.3 250.19 331.85 252.65 335.27 250.5"/><polygon class="cls-118" points="327.28 273.14 319.73 270.68 318.38 266.76 325.92 269.22 327.28 273.14"/><polygon class="cls-117" points="320.63 240.82 324.77 242.02 326.17 240.69 328.91 241.58 330.19 238.64 322.64 236.18 320.63 240.82"/><path class="cls-117" d="M318.67,282.34l4,1.65-.33-2.49A7.11,7.11,0,0,1,318.67,282.34Z" transform="translate(-9.04 -10.78)"/><path class="cls-117" d="M319.28,259.72l6.66,3.52a10.17,10.17,0,0,1,1.71-1.82S325.91,254.09,319.28,259.72Z" transform="translate(-9.04 -10.78)"/><polygon class="cls-119" points="157.49 0 163.91 12.85 159.62 14.8 153.62 3 157.49 0"/><polygon class="cls-120" points="13.04 299.34 18.98 305.86 21.31 303.17 15.71 297 13.04 299.34"/><polygon class="cls-121" points="314.82 78.41 308.84 82.03 306.44 77.49 312.98 73.67 314.82 78.41"/><polygon class="cls-121" points="344.26 308.12 335.69 314.21 333.3 309.66 341.62 304.8 344.26 308.12"/><polygon class="cls-122" points="332.94 47.33 331.49 13.68 375.56 13.68 373.75 47.24 332.94 47.33"/><polygon class="cls-123" points="331.49 13.68 330.17 15.66 331.49 47.33 332.94 47.33 331.49 13.68"/><polygon class="cls-13" points="346.13 20.4 339.21 19.66 340.16 42.72 346.13 42.13 346.13 39.75 342.67 39.83 342.27 22.04 346.13 22.15 346.13 20.4"/><polygon class="cls-13" points="360.29 20.4 367.2 19.66 366.26 42.72 360.29 42.13 360.29 39.75 363.75 39.83 364.14 22.04 360.29 22.15 360.29 20.4"/><polygon class="cls-124" points="29.06 121.02 30.04 98.07 0 98.07 1.24 120.95 29.06 121.02"/><polygon class="cls-125" points="30.04 98.07 30.94 99.42 30.04 121.02 29.06 121.02 30.04 98.07"/><path class="cls-13" d="M27.51,113.47a19.87,19.87,0,0,1,3.87.14c.58.27-.15,5.63-.15,5.63l1.31,1.21-1.22,1.19s.06,5.44-.71,5.89-3.43,0-3.43,0v-1.36A7.86,7.86,0,0,0,29.7,126c.36-.29.33-5,.33-5l.58-.64-.58-.69s.1-3.39,0-4.32c0-.62-2.56-.65-2.56-.65Z" transform="translate(-9.04 -10.78)"/><path class="cls-13" d="M20,113.47a19.87,19.87,0,0,0-3.87.14c-.58.27.15,5.63.15,5.63l-1.32,1.21,1.23,1.19s-.06,5.44.71,5.89,3.42,0,3.42,0v-1.36a7.8,7.8,0,0,1-2.51-.15c-.36-.29-.33-5-.33-5l-.58-.64.58-.69s-.1-3.39,0-4.32c0-.62,2.56-.65,2.56-.65Z" transform="translate(-9.04 -10.78)"/><path class="cls-92" d="M291.6,61.15l-7.36-19.27,19.09,4ZM285,42.55l6.72,17.58,10.7-13.94Z" transform="translate(-9.04 -10.78)"/><rect class="cls-92" x="341.93" y="329.53" width="10.94" height="0.5" transform="matrix(0.59, -0.81, 0.81, 0.59, -132.99, 404.22)"/><polygon class="cls-92" points="274.62 242.2 267.67 233.55 268.06 233.24 275.01 241.88 274.62 242.2"/><polygon class="cls-92" points="60.29 302.92 46.42 292.86 46.72 292.45 60.58 302.51 60.29 302.92"/><rect class="cls-92" x="53.98" y="308.21" width="17.13" height="0.5" transform="translate(-229.77 160.52) rotate(-52.7)"/><rect class="cls-92" x="42.33" y="158.54" width="0.5" height="10.14" transform="translate(-131.09 114.42) rotate(-62.28)"/><polygon class="cls-92" points="382.75 34.41 382.38 34.08 392.75 22.25 393.13 22.58 382.75 34.41"/><rect class="cls-92" x="192.17" y="73.36" width="0.5" height="10.41" transform="translate(-23.89 83.15) rotate(-26.45)"/><rect class="cls-92" x="114.87" y="235.55" width="15.54" height="0.5" transform="translate(-131.76 122.85) rotate(-39.91)"/></g></g></g></svg>