<svg xmlns="http://www.w3.org/2000/svg" viewBox="0 0 472.57 445.89"><defs><style>.cls-1{opacity:0.2;}.cls-2,.cls-7{fill:#41ead4;}.cls-10,.cls-3,.cls-4,.cls-9{fill:none;}.cls-3,.cls-4,.cls-5,.cls-6,.cls-7,.cls-9{stroke:#263238;}.cls-10,.cls-3,.cls-5,.cls-6,.cls-7,.cls-8,.cls-9{stroke-linecap:round;stroke-linejoin:round;}.cls-4{stroke-miterlimit:10;}.cls-11,.cls-5,.cls-8{fill:#263238;}.cls-6{fill:#fff;}.cls-10,.cls-8{stroke:#fff;}.cls-10,.cls-9{stroke-width:3px;}</style></defs><g id="Background_Simple" data-name="Background Simple"><g class="cls-1"><path class="cls-2" d="M471,238.3c-4.94,41.8-24,90.4-62.14,112.73-57.6,33.74-52.78,85.63-165.2,108.2a230.54,230.54,0,0,1-49.84,4.7,191.28,191.28,0,0,1-24.47-2c-71.44-10.44-119.53-60.1-137.17-120C9,263,55.33,211.42,86.06,180.32s53.22-128,163.56-151a224.36,224.36,0,0,1,51.23-4.86c39.26,1,82.08,13.85,111.71,40.76q3.35,3,6.5,6.27C460.24,113.72,477.74,181.31,471,238.3Z" transform="translate(-13.98 -18.08)"/></g></g><g id="Table"><line class="cls-3" x1="449.8" y1="264.85" x2="464.98" y2="264.85"/><line class="cls-3" x1="8.61" y1="264.85" x2="442.99" y2="264.85"/></g><g id="Gears"><path class="cls-4" d="M440.46,165.83V158L433,156.93a27.14,27.14,0,0,0-4.31-10.48l4.56-6.09-5.54-5.53-6.05,4.54A27.34,27.34,0,0,0,411.16,135l-1.07-7.52h-7.83L401.19,135a27.18,27.18,0,0,0-10.49,4.31l-6.08-4.56-5.54,5.54,4.55,6.05a27,27,0,0,0-4.37,10.47l-7.53,1.07v7.83l7.5,1.07a27,27,0,0,0,4.3,10.49L379,183.32l5.54,5.54,6.06-4.54A27.23,27.23,0,0,0,401,188.69l1.08,7.52h7.82l1.08-7.5a27.07,27.07,0,0,0,10.49-4.3l6.08,4.56,5.53-5.54-4.54-6.06a27.08,27.08,0,0,0,4.37-10.46Zm-34.36,15a19,19,0,1,1,19-19A19,19,0,0,1,406.1,180.82Z" transform="translate(-13.98 -18.08)"/><path class="cls-4" d="M462.16,212.54v-5.6l-5.36-.76a19.35,19.35,0,0,0-3.08-7.5l3.26-4.35-4-4-4.33,3.25a19.5,19.5,0,0,0-7.48-3.13l-.77-5.38h-5.6l-.77,5.36a19.57,19.57,0,0,0-7.5,3.08l-4.35-3.26-4,4,3.24,4.33a19.53,19.53,0,0,0-3.12,7.49l-5.38.76v5.6l5.36.77a19.35,19.35,0,0,0,3.08,7.5l-3.26,4.35,4,4,4.33-3.25a19.33,19.33,0,0,0,7.48,3.12l.77,5.39h5.6l.77-5.37a19.4,19.4,0,0,0,7.5-3.07l4.35,3.26,3.95-4-3.25-4.34a19.28,19.28,0,0,0,3.13-7.48Zm-24.58,10.72a13.57,13.57,0,1,1,13.58-13.57A13.58,13.58,0,0,1,437.58,223.26Z" transform="translate(-13.98 -18.08)"/><path class="cls-4" d="M66.52,208.69v7.14l6.84,1a24.69,24.69,0,0,0,3.93,9.57l-4.16,5.55,5.05,5,5.53-4.14a24.81,24.81,0,0,0,9.54,4l1,6.86h7.14l1-6.84a24.6,24.6,0,0,0,9.57-3.93l5.55,4.16,5-5.05-4.15-5.53a24.81,24.81,0,0,0,4-9.54l6.87-1v-7.15l-6.84-1a24.91,24.91,0,0,0-3.93-9.57l4.16-5.55-5-5-5.53,4.15a24.85,24.85,0,0,0-9.55-4l-1-6.87H94.38l-1,6.84a24.85,24.85,0,0,0-9.57,3.93l-5.55-4.16-5,5,4.14,5.53a24.92,24.92,0,0,0-4,9.55ZM97.88,195a17.32,17.32,0,1,1-17.32,17.31A17.32,17.32,0,0,1,97.88,195Z" transform="translate(-13.98 -18.08)"/><path class="cls-4" d="M48.85,169.81v4.36l4.17.59a15.09,15.09,0,0,0,2.4,5.84L52.88,184,56,187.07l3.37-2.53A15.09,15.09,0,0,0,65.16,187l.59,4.19h4.36l.6-4.17a15.22,15.22,0,0,0,5.84-2.4l3.38,2.54L83,184.05l-2.53-3.38a15.07,15.07,0,0,0,2.44-5.82l4.18-.6v-4.36l-4.17-.59a15.23,15.23,0,0,0-2.39-5.84l2.53-3.39L80,157l-3.37,2.53a15.11,15.11,0,0,0-5.82-2.43l-.6-4.19H65.84l-.6,4.17a15.22,15.22,0,0,0-5.84,2.4L56,156.93,52.94,160l2.53,3.38A15,15,0,0,0,53,169.21ZM68,161.47A10.56,10.56,0,1,1,57.41,172,10.56,10.56,0,0,1,68,161.47Z" transform="translate(-13.98 -18.08)"/><path class="cls-4" d="M216.7,90.3v6l5.73.82a20.74,20.74,0,0,0,3.29,8l-3.49,4.65,4.23,4.23,4.64-3.47a20.78,20.78,0,0,0,8,3.34l.82,5.75h6l.82-5.73a20.9,20.9,0,0,0,8-3.29l4.64,3.48,4.23-4.23-3.47-4.63a20.67,20.67,0,0,0,3.34-8l5.76-.82v-6l-5.74-.82a20.68,20.68,0,0,0-3.29-8l3.49-4.65-4.23-4.23-4.63,3.47a20.82,20.82,0,0,0-8-3.34L246,67.08h-6l-.82,5.73a20.63,20.63,0,0,0-8,3.29l-4.65-3.48-4.23,4.23,3.47,4.63a20.82,20.82,0,0,0-3.34,8ZM243,78.84a14.51,14.51,0,1,1-14.51,14.51A14.51,14.51,0,0,1,243,78.84Z" transform="translate(-13.98 -18.08)"/></g><g id="Device"><path class="cls-5" d="M100.92,71.92H376a8,8,0,0,1,8,8V271.34a0,0,0,0,1,0,0H93a0,0,0,0,1,0,0V79.89A8,8,0,0,1,100.92,71.92Z"/><polygon class="cls-6" points="427.65 359.49 49.3 359.49 92.95 271.34 383.99 271.34 427.65 359.49"/><rect class="cls-7" x="110.58" y="87.71" width="255.78" height="167.84"/><polygon class="cls-8" points="226.33 299.24 226.84 288.5 211.46 288.5 210.44 299.24 226.33 299.24"/><polygon class="cls-8" points="258.12 299.24 257.59 288.5 242.21 288.5 242.22 299.24 258.12 299.24"/><polygon class="cls-8" points="340.89 310.73 357.33 310.73 353.47 299.24 337.58 299.24 340.89 310.73"/><polygon class="cls-8" points="210.44 299.24 211.46 288.5 196.08 288.5 194.55 299.24 210.44 299.24"/><polygon class="cls-8" points="178.66 299.24 180.7 288.5 165.32 288.5 162.76 299.24 178.66 299.24"/><polygon class="cls-8" points="321.69 299.24 319.1 288.5 303.73 288.5 305.79 299.24 321.69 299.24"/><polygon class="cls-8" points="337.58 299.24 334.48 288.5 319.1 288.5 321.69 299.24 337.58 299.24"/><polygon class="cls-8" points="162.76 299.24 165.32 288.5 149.95 288.5 146.87 299.24 162.76 299.24"/><polygon class="cls-8" points="274.01 299.24 272.97 288.5 257.59 288.5 258.12 299.24 274.01 299.24"/><polygon class="cls-8" points="353.47 299.24 349.86 288.5 334.48 288.5 337.58 299.24 353.47 299.24"/><polygon class="cls-8" points="305.79 299.24 303.73 288.5 288.35 288.5 289.9 299.24 305.79 299.24"/><polygon class="cls-8" points="289.9 299.24 288.35 288.5 272.97 288.5 274.01 299.24 289.9 299.24"/><polygon class="cls-8" points="242.22 299.24 242.21 288.5 226.84 288.5 226.33 299.24 242.22 299.24"/><polygon class="cls-8" points="130.98 299.24 115.09 299.24 110.7 310.73 127.14 310.73 130.98 299.24"/><polygon class="cls-8" points="134.57 288.5 119.19 288.5 115.09 299.24 130.98 299.24 134.57 288.5"/><polygon class="cls-8" points="146.87 299.24 149.95 288.5 134.57 288.5 130.98 299.24 146.87 299.24"/><polygon class="cls-8" points="106 323.04 100.94 336.26 118.61 336.26 123.03 323.04 106 323.04"/><polygon class="cls-8" points="127.14 310.73 110.7 310.73 106 323.04 123.03 323.04 127.14 310.73"/><polygon class="cls-8" points="123.03 323.04 118.61 336.26 136.27 336.26 140.06 323.04 123.03 323.04"/><polygon class="cls-8" points="194.55 299.24 196.08 288.5 180.7 288.5 178.66 299.24 194.55 299.24"/><polygon class="cls-8" points="192.91 310.73 194.55 299.24 178.66 299.24 176.47 310.73 192.91 310.73"/><polygon class="cls-8" points="176.47 310.73 178.66 299.24 162.76 299.24 160.02 310.73 176.47 310.73"/><polygon class="cls-8" points="209.35 310.73 210.44 299.24 194.55 299.24 192.91 310.73 209.35 310.73"/><polygon class="cls-8" points="146.87 299.24 130.98 299.24 127.14 310.73 143.58 310.73 146.87 299.24"/><polygon class="cls-8" points="344.43 323.04 361.46 323.04 357.33 310.73 340.89 310.73 344.43 323.04"/><polygon class="cls-8" points="160.02 310.73 162.76 299.24 146.87 299.24 143.58 310.73 160.02 310.73"/><polygon class="cls-8" points="127.14 310.73 123.03 323.04 140.06 323.04 143.58 310.73 127.14 310.73"/><polygon class="cls-8" points="308 310.73 305.79 299.24 289.9 299.24 291.56 310.73 308 310.73"/><polygon class="cls-8" points="291.56 310.73 289.9 299.24 274.01 299.24 275.12 310.73 291.56 310.73"/><polygon class="cls-8" points="340.89 310.73 337.58 299.24 321.69 299.24 324.44 310.73 340.89 310.73"/><polygon class="cls-8" points="242.23 310.73 242.22 299.24 226.33 299.24 225.79 310.73 242.23 310.73"/><polygon class="cls-8" points="275.12 310.73 274.01 299.24 258.12 299.24 258.68 310.73 275.12 310.73"/><polygon class="cls-8" points="258.68 310.73 258.12 299.24 242.22 299.24 242.23 310.73 258.68 310.73"/><polygon class="cls-8" points="225.79 310.73 226.33 299.24 210.44 299.24 209.35 310.73 225.79 310.73"/><polygon class="cls-8" points="275.12 310.73 276.31 323.04 293.34 323.04 291.56 310.73 275.12 310.73"/><polygon class="cls-8" points="291.56 310.73 293.34 323.04 310.37 323.04 308 310.73 291.56 310.73"/><polygon class="cls-8" points="143.58 310.73 140.06 323.04 157.09 323.04 160.02 310.73 143.58 310.73"/><polygon class="cls-8" points="308 310.73 310.37 323.04 327.4 323.04 324.44 310.73 308 310.73"/><polygon class="cls-8" points="242.23 310.73 242.25 323.04 259.28 323.04 258.68 310.73 242.23 310.73"/><polygon class="cls-8" points="324.44 310.73 327.4 323.04 344.43 323.04 340.89 310.73 324.44 310.73"/><polygon class="cls-8" points="258.68 310.73 259.28 323.04 276.31 323.04 275.12 310.73 258.68 310.73"/><polygon class="cls-8" points="176.47 310.73 174.12 323.04 191.15 323.04 192.91 310.73 176.47 310.73"/><polygon class="cls-8" points="160.02 310.73 157.09 323.04 174.12 323.04 176.47 310.73 160.02 310.73"/><polygon class="cls-8" points="225.79 310.73 225.21 323.04 242.25 323.04 242.23 310.73 225.79 310.73"/><polygon class="cls-8" points="209.35 310.73 208.18 323.04 225.21 323.04 225.79 310.73 209.35 310.73"/><polygon class="cls-8" points="192.91 310.73 191.15 323.04 208.18 323.04 209.35 310.73 192.91 310.73"/><polygon class="cls-8" points="324.44 310.73 321.69 299.24 305.79 299.24 308 310.73 324.44 310.73"/><polygon class="cls-8" points="134.57 288.5 138.24 277.5 123.39 277.5 119.19 288.5 134.57 288.5"/><polygon class="cls-8" points="119.19 288.5 105 288.5 100.42 299.24 115.09 299.24 119.19 288.5"/><polygon class="cls-8" points="123.39 277.5 109.68 277.5 105 288.5 119.19 288.5 123.39 277.5"/><polygon class="cls-8" points="115.09 299.24 100.42 299.24 95.52 310.73 110.7 310.73 115.09 299.24"/><polygon class="cls-8" points="110.7 310.73 95.52 310.73 90.27 323.04 106 323.04 110.7 310.73"/><polygon class="cls-8" points="106 323.04 90.27 323.04 84.64 336.26 100.94 336.26 106 323.04"/><polygon class="cls-8" points="369.36 299.24 373.77 310.73 388.32 310.73 383.42 299.24 369.36 299.24"/><polygon class="cls-8" points="378.5 323.04 393.56 323.04 388.32 310.73 373.77 310.73 378.5 323.04"/><polygon class="cls-8" points="383.57 336.26 399.2 336.26 393.56 323.04 378.5 323.04 383.57 336.26"/><polygon class="cls-8" points="257.59 288.5 257.06 277.5 242.2 277.5 242.21 288.5 257.59 288.5"/><polygon class="cls-8" points="369.36 299.24 383.42 299.24 378.84 288.5 365.24 288.5 369.36 299.24"/><polygon class="cls-8" points="361.46 323.04 378.5 323.04 373.77 310.73 357.33 310.73 361.46 323.04"/><polygon class="cls-8" points="149.95 288.5 153.09 277.5 138.24 277.5 134.57 288.5 149.95 288.5"/><polygon class="cls-8" points="349.86 288.5 353.47 299.24 369.36 299.24 365.24 288.5 349.86 288.5"/><polygon class="cls-8" points="378.84 288.5 374.15 277.5 361.02 277.5 365.24 288.5 378.84 288.5"/><polygon class="cls-8" points="365.24 288.5 361.02 277.5 346.17 277.5 349.86 288.5 365.24 288.5"/><polygon class="cls-8" points="310.37 323.04 312.92 336.26 330.58 336.26 327.4 323.04 310.37 323.04"/><polygon class="cls-8" points="365.91 336.26 383.57 336.26 378.5 323.04 361.46 323.04 365.91 336.26"/><polygon class="cls-8" points="349.86 288.5 346.17 277.5 331.31 277.5 334.48 288.5 349.86 288.5"/><polygon class="cls-8" points="344.43 323.04 348.24 336.26 365.91 336.26 361.46 323.04 344.43 323.04"/><polygon class="cls-8" points="327.4 323.04 330.58 336.26 348.24 336.26 344.43 323.04 327.4 323.04"/><polygon class="cls-8" points="357.33 310.73 373.77 310.73 369.36 299.24 353.47 299.24 357.33 310.73"/><polygon class="cls-8" points="211.46 288.5 212.5 277.5 197.65 277.5 196.08 288.5 211.46 288.5"/><polygon class="cls-8" points="334.48 288.5 331.31 277.5 316.46 277.5 319.1 288.5 334.48 288.5"/><polygon class="cls-8" points="196.08 288.5 197.65 277.5 182.8 277.5 180.7 288.5 196.08 288.5"/><polygon class="cls-8" points="242.21 288.5 242.2 277.5 227.35 277.5 226.84 288.5 242.21 288.5"/><polygon class="cls-8" points="180.7 288.5 182.8 277.5 167.95 277.5 165.32 288.5 180.7 288.5"/><polygon class="cls-8" points="165.32 288.5 167.95 277.5 153.09 277.5 149.95 288.5 165.32 288.5"/><polygon class="cls-8" points="226.84 288.5 227.35 277.5 212.5 277.5 211.46 288.5 226.84 288.5"/><polygon class="cls-8" points="319.1 288.5 316.46 277.5 301.61 277.5 303.73 288.5 319.1 288.5"/><polygon class="cls-8" points="303.73 288.5 301.61 277.5 286.76 277.5 288.35 288.5 303.73 288.5"/><polygon class="cls-8" points="272.97 288.5 271.91 277.5 257.06 277.5 257.59 288.5 272.97 288.5"/><polygon class="cls-8" points="310.37 323.04 293.34 323.04 276.31 323.04 259.28 323.04 242.25 323.04 225.21 323.04 208.18 323.04 191.15 323.04 174.12 323.04 157.09 323.04 140.06 323.04 136.27 336.26 153.94 336.26 171.6 336.26 189.26 336.26 206.93 336.26 224.59 336.26 242.26 336.26 259.92 336.26 277.59 336.26 295.25 336.26 312.92 336.26 310.37 323.04"/><polygon class="cls-8" points="288.35 288.5 286.76 277.5 271.91 277.5 272.97 288.5 288.35 288.5"/><rect class="cls-5" x="49.3" y="359.49" width="378.52" height="5.37"/></g><g id="Coding"><line class="cls-9" x1="127.07" y1="100.95" x2="143.56" y2="100.95"/><line class="cls-10" x1="127.07" y1="109.41" x2="189.02" y2="109.41"/><line class="cls-10" x1="222.89" y1="109.41" x2="284.84" y2="109.41"/><line class="cls-9" x1="193.03" y1="109.41" x2="217.55" y2="109.41"/><line class="cls-9" x1="127.07" y1="117.88" x2="162.73" y2="117.88"/><line class="cls-9" x1="167.18" y1="117.88" x2="202.84" y2="117.88"/><line class="cls-9" x1="207.29" y1="117.88" x2="242.95" y2="117.88"/><line class="cls-9" x1="247.41" y1="117.88" x2="262.56" y2="117.88"/><line class="cls-9" x1="148.02" y1="100.95" x2="164.51" y2="100.95"/><line class="cls-9" x1="246.07" y1="100.95" x2="262.56" y2="100.95"/><line class="cls-10" x1="224.23" y1="100.95" x2="240.72" y2="100.95"/><line class="cls-9" x1="168.97" y1="100.95" x2="217.1" y2="100.95"/><line class="cls-9" x1="127.07" y1="152.65" x2="143.56" y2="152.65"/><line class="cls-10" x1="127.07" y1="161.11" x2="189.02" y2="161.11"/><line class="cls-9" x1="222.89" y1="161.11" x2="284.84" y2="161.11"/><line class="cls-9" x1="193.03" y1="161.11" x2="217.55" y2="161.11"/><line class="cls-9" x1="127.07" y1="169.58" x2="162.73" y2="169.58"/><line class="cls-9" x1="167.18" y1="169.58" x2="202.84" y2="169.58"/><line class="cls-10" x1="207.29" y1="169.58" x2="242.95" y2="169.58"/><line class="cls-9" x1="247.41" y1="169.58" x2="262.56" y2="169.58"/><line class="cls-9" x1="148.02" y1="152.65" x2="164.51" y2="152.65"/><line class="cls-9" x1="246.07" y1="152.65" x2="262.56" y2="152.65"/><line class="cls-10" x1="224.23" y1="152.65" x2="240.72" y2="152.65"/><line class="cls-9" x1="168.97" y1="152.65" x2="217.1" y2="152.65"/><line class="cls-9" x1="127.07" y1="228.86" x2="143.56" y2="228.86"/><line class="cls-10" x1="127.07" y1="237.33" x2="189.02" y2="237.33"/><line class="cls-9" x1="222.89" y1="237.33" x2="284.84" y2="237.33"/><line class="cls-9" x1="193.03" y1="237.33" x2="217.55" y2="237.33"/><line class="cls-9" x1="127.07" y1="245.79" x2="162.73" y2="245.79"/><line class="cls-9" x1="167.18" y1="245.79" x2="202.84" y2="245.79"/><line class="cls-10" x1="207.29" y1="245.79" x2="242.95" y2="245.79"/><line class="cls-9" x1="247.41" y1="245.79" x2="262.56" y2="245.79"/><line class="cls-9" x1="148.02" y1="228.86" x2="164.51" y2="228.86"/><line class="cls-9" x1="246.07" y1="228.86" x2="262.56" y2="228.86"/><line class="cls-10" x1="224.23" y1="228.86" x2="240.72" y2="228.86"/><line class="cls-9" x1="168.97" y1="228.86" x2="217.1" y2="228.86"/><line class="cls-9" x1="219.77" y1="126.8" x2="236.26" y2="126.8"/><line class="cls-9" x1="197.93" y1="126.8" x2="214.43" y2="126.8"/><line class="cls-9" x1="142.67" y1="126.8" x2="190.8" y2="126.8"/><line class="cls-9" x1="219.77" y1="141.95" x2="236.26" y2="141.95"/><line class="cls-9" x1="197.93" y1="141.95" x2="214.43" y2="141.95"/><line class="cls-10" x1="142.67" y1="141.95" x2="190.8" y2="141.95"/><line class="cls-9" x1="159.16" y1="134.37" x2="142.67" y2="134.37"/><line class="cls-9" x1="181" y1="134.37" x2="164.51" y2="134.37"/><line class="cls-10" x1="236.26" y1="134.37" x2="188.13" y2="134.37"/><line class="cls-9" x1="219.77" y1="179.83" x2="236.26" y2="179.83"/><line class="cls-9" x1="197.93" y1="179.83" x2="214.43" y2="179.83"/><line class="cls-9" x1="142.67" y1="179.83" x2="190.8" y2="179.83"/><line class="cls-9" x1="219.77" y1="194.99" x2="236.26" y2="194.99"/><line class="cls-9" x1="197.93" y1="194.99" x2="214.43" y2="194.99"/><line class="cls-10" x1="142.67" y1="194.99" x2="190.8" y2="194.99"/><line class="cls-9" x1="159.16" y1="187.41" x2="142.67" y2="187.41"/><line class="cls-9" x1="181" y1="187.41" x2="164.51" y2="187.41"/><line class="cls-10" x1="236.26" y1="187.41" x2="188.13" y2="187.41"/><line class="cls-9" x1="159.16" y1="203.9" x2="142.67" y2="203.9"/><line class="cls-9" x1="181" y1="203.9" x2="164.51" y2="203.9"/><line class="cls-10" x1="236.26" y1="203.9" x2="188.13" y2="203.9"/><line class="cls-9" x1="159.16" y1="219.05" x2="142.67" y2="219.05"/><line class="cls-9" x1="181" y1="219.05" x2="164.51" y2="219.05"/><line class="cls-10" x1="236.26" y1="219.05" x2="188.13" y2="219.05"/><line class="cls-9" x1="219.77" y1="211.48" x2="236.26" y2="211.48"/><line class="cls-9" x1="197.93" y1="211.48" x2="214.43" y2="211.48"/><line class="cls-10" x1="142.67" y1="211.48" x2="190.8" y2="211.48"/><rect class="cls-11" x="115.69" y="98" width="5.27" height="5.2"/><rect class="cls-11" x="115.69" y="106.55" width="5.27" height="5.2"/><rect class="cls-11" x="115.69" y="115.09" width="5.27" height="5.2"/><rect class="cls-11" x="115.69" y="123.63" width="5.27" height="5.2"/><rect class="cls-11" x="115.69" y="132.18" width="5.27" height="5.2"/><rect class="cls-11" x="115.69" y="140.72" width="5.27" height="5.2"/><rect class="cls-11" x="115.69" y="149.26" width="5.27" height="5.2"/><rect class="cls-11" x="115.69" y="157.81" width="5.27" height="5.2"/><rect class="cls-11" x="115.69" y="166.35" width="5.27" height="5.2"/><rect class="cls-11" x="115.69" y="174.89" width="5.27" height="5.2"/><rect class="cls-11" x="115.69" y="183.44" width="5.27" height="5.2"/><rect class="cls-11" x="115.69" y="191.98" width="5.27" height="5.2"/><rect class="cls-11" x="115.69" y="200.52" width="5.27" height="5.2"/><rect class="cls-11" x="115.69" y="209.07" width="5.27" height="5.2"/><rect class="cls-11" x="115.69" y="217.61" width="5.27" height="5.2"/><rect class="cls-11" x="115.69" y="226.15" width="5.27" height="5.2"/><rect class="cls-11" x="115.69" y="234.7" width="5.27" height="5.2"/><rect class="cls-11" x="115.69" y="243.24" width="5.27" height="5.2"/></g><g id="Speech_Bubble" data-name="Speech Bubble"><path class="cls-5" d="M380,22.66a57.18,57.18,0,0,0-39.52,98.51l-8.14,15.2,20-6.48A57.19,57.19,0,1,0,380,22.66Z" transform="translate(-13.98 -18.08)"/><path class="cls-6" d="M377.31,18.58a57.18,57.18,0,0,0-39.52,98.51l-8.14,15.19,20-6.47A57.19,57.19,0,1,0,377.31,18.58Z" transform="translate(-13.98 -18.08)"/></g><g id="Code"><path class="cls-2" d="M358.16,99.34l-22-15.52V75.59l22-15.67v8.3L342.41,79.67l15.75,11.45Z" transform="translate(-13.98 -18.08)"/><path class="cls-2" d="M364.85,102.11,381.6,39.86h7.15l-16.83,62.25Z" transform="translate(-13.98 -18.08)"/><path class="cls-2" d="M395.43,99.34V91.12l15.83-11.53L395.43,68.22v-8.3l22.06,15.6v8.22Z" transform="translate(-13.98 -18.08)"/><path class="cls-11" d="M360.89,95.93l-22-15.52V72.19l22-15.68v8.3L345.13,76.26l15.76,11.45Z" transform="translate(-13.98 -18.08)"/><path class="cls-11" d="M367.57,98.7l16.75-62.24h7.15L374.64,98.7Z" transform="translate(-13.98 -18.08)"/><path class="cls-11" d="M398.15,95.93V87.71L414,76.19,398.15,64.81v-8.3l22.06,15.6v8.23Z" transform="translate(-13.98 -18.08)"/></g><g id="Hand_2" data-name="Hand 2"><path class="cls-5" d="M333.83,383.53l34.63,28.59a49.6,49.6,0,0,0,6.81,11.57c4.77,6.13,60.6,29.28,60.6,29.28l9.53,2.72-104.17-78.3Z" transform="translate(-13.98 -18.08)"/><path class="cls-6" d="M401.28,360.82s-9.29-11.36-13.42-18.58-10-24.09-14.46-34.07-11-13.07-18.92-16.17-11-2.41-11-.34,3.1,5.85,3.1,5.85l-13.42,2.41s-5.51-3.1-8.95-2.07-10,7.57-10,7.57-6.88-2.41-11-1.38-15.48,6.54-20.3,8.95-10,2.75-9.64,4.82,5.17,5.5,9.64,4.82,12-3.45,16.86-3.45,7.22,1,9.63,2.76,12.39,15.83,13.77,17.55,2.75,8.6,2.75,8.6-6.07-2.59-9.85-6-9.2-11.51-15.4-12.19-12.94,4.81-9.5,7.56,6.88,4.47,9.29,7.57,6.19,12.39,12.73,22.37,20.64,16.17,20.64,16.17l29.25,12s7.57-17.89,21.68-22.71S403,366,403,366Z" transform="translate(-13.98 -18.08)"/><path class="cls-3" d="M273.27,317.81s3.36-.86,4.33-1.18a7.94,7.94,0,0,0,2.09-1.29" transform="translate(-13.98 -18.08)"/><path class="cls-3" d="M314.22,305.42s15.85,8.87,20.32,11.27c1.84,1,6.2,3,7.54,7.54a19.16,19.16,0,0,0,4.8,8.23" transform="translate(-13.98 -18.08)"/><path class="cls-3" d="M333.15,299.92s15.48,12,16.51,12.38,4.82.69,6.54,3.79,3.44,6.54,3.44,6.54" transform="translate(-13.98 -18.08)"/><path class="cls-3" d="M346.57,297.51s5.5-1,7.57,3.09,11,14.11,11,14.11" transform="translate(-13.98 -18.08)"/><path class="cls-3" d="M297.36,341.89s4.13-2.06,2.06-5.16-6.19-3.09-6.19-3.09" transform="translate(-13.98 -18.08)"/><path class="cls-7" d="M400.59,356.35s-18.58,4.81-30.28,17.89-11.7,24.09-10.67,25.81S383,413.81,383,413.81s13.76-26.5,23.4-33S423,372.52,423,372.52s-17.2-11-17.89-12.39S403,355.31,400.59,356.35Z" transform="translate(-13.98 -18.08)"/><path class="cls-7" d="M452.89,459.92s-18.93-9.64-23.4-12.05L394.39,429a41.74,41.74,0,0,1-5.85-2.06c-2.06-1-5.16-.69-6.53-7.92s2.06-21.68,17.55-36.13,25.11-13.76,25.11-13.76,6.54-.69,8.26.69,2.07,5.5,3.79,6.19,49.33,15,49.33,15" transform="translate(-13.98 -18.08)"/><path class="cls-3" d="M398.87,406.93s-2.07,10.32,2.75,18.92" transform="translate(-13.98 -18.08)"/><path class="cls-3" d="M403.68,420.35s-2.06.69,3.45,9.63" transform="translate(-13.98 -18.08)"/></g><g id="Hand_1" data-name="Hand 1"><path class="cls-5" d="M191.65,353.16s-22.68,27-29.49,32.4a103.73,103.73,0,0,1-12.94,8.85l-24.51,24.52s.68,3.4-6.12,7.49-20.43,8.85-23.83,10.21S53.9,455,53.9,455Z" transform="translate(-13.98 -18.08)"/><path class="cls-6" d="M224.55,311.91c-2.38.72-11,.24-11,.24s-5.24-4-7.86-6.44-9.3-16.45-12.64-17.17-17.41,7.4-17.41,7.4-11.44-5-14.3-4.53-12.17,8.82-12.17,8.82-12.87-1.91-15.26,1.91-6.2,16-10,23.6-17.65,27.9-17.65,27.9l-1.9,2.62s2.86,1,11.68,5.49,22.89,26,22.89,26,19.55-9.06,30.52-14.07,19.79-16,22.18-20.51,6.44-8.82,11.44-12.87,14.31-5.73,16.46-8.59-1.44-7.15-1.44-7.15a34.73,34.73,0,0,0,3.82-2.39c1.19-1,6-3.57,6.44-6.43S226.94,311.2,224.55,311.91ZM187.83,334.8,192.36,321c1.91,1.43,10.26,4.53,10.26,4.53C197.13,326.93,187.83,334.8,187.83,334.8Z" transform="translate(-13.98 -18.08)"/><path class="cls-3" d="M140.14,316s-.71-4.06-.23-5.49,9.29-10.25,9.29-10.25" transform="translate(-13.98 -18.08)"/><polyline class="cls-3" points="133.79 302.66 135.7 296.46 161.69 277.86"/><path class="cls-3" d="M160.65,325.26s.95-6,2.15-6.91,10.25-3.1,10.25-3.1,13.83-11.92,16.21-11.92,19.79,9.3,24.32,8.82" transform="translate(-13.98 -18.08)"/><path class="cls-3" d="M221.21,313.1s-3.1,0-1.43,1.92,5.24,1,6.91.48" transform="translate(-13.98 -18.08)"/><path class="cls-3" d="M202.62,325.5s8.58-5,15.49-.95" transform="translate(-13.98 -18.08)"/><path class="cls-3" d="M216,326l-4.77,1.67a32.23,32.23,0,0,1,2.15,5.24l.23,1.44" transform="translate(-13.98 -18.08)"/><line class="cls-3" x1="173.85" y1="316.73" x2="169.56" y2="326.26"/><path class="cls-7" d="M74.57,371.76s15-9.77,20.51-13.83,8.34-3.34,11.2-4.29S123.45,357,133,368.9s8.58,20.74,7.39,23.13-31.23,20.51-31.23,20.51-4.3-17.17-16.93-27.43S74.57,371.76,74.57,371.76Z" transform="translate(-13.98 -18.08)"/><path class="cls-7" d="M14.48,400.29s27.83-17,32.47-19.8,10-6.6,10-6.6,1.46-7.36,8.54-7.61,13.92,2.54,23.19,7.61,20.75,23.61,22,31,3.66,9.64,1.71,14.46-9.28,5.08-10.74,5.08-4.88,3.05-4.88,3.05l-52.24,34" transform="translate(-13.98 -18.08)"/><path class="cls-3" d="M100.83,411.48s2.18,1.62-2.18,8.43" transform="translate(-13.98 -18.08)"/><path class="cls-3" d="M97.71,414.72s-.31,7.14-6.86,13.62" transform="translate(-13.98 -18.08)"/></g></svg>